<?xml version="1.0" encoding="UTF-8" standalone="no"?>
<!-- Created with Inkscape (http://www.inkscape.org/) -->

<svg
   width="210mm"
   height="297mm"
   viewBox="0 0 210 297"
   version="1.1"
   id="svg1"
   inkscape:version="1.3.2 (091e20e, 2023-11-25, custom)"
   sodipodi:docname="FLEX_schets.svg"
   xml:space="preserve"
   inkscape:export-filename="FLEX_schets.png"
   inkscape:export-xdpi="400"
   inkscape:export-ydpi="400"
   xmlns:inkscape="http://www.inkscape.org/namespaces/inkscape"
   xmlns:sodipodi="http://sodipodi.sourceforge.net/DTD/sodipodi-0.dtd"
   xmlns="http://www.w3.org/2000/svg"
   xmlns:svg="http://www.w3.org/2000/svg"><sodipodi:namedview
     id="namedview1"
     pagecolor="#ffffff"
     bordercolor="#000000"
     borderopacity="0.25"
     inkscape:showpageshadow="2"
     inkscape:pageopacity="0.0"
     inkscape:pagecheckerboard="0"
     inkscape:deskcolor="#d1d1d1"
     inkscape:document-units="mm"
     inkscape:zoom="1.4142136"
     inkscape:cx="319.61227"
     inkscape:cy="248.19448"
     inkscape:window-width="1078"
     inkscape:window-height="904"
     inkscape:window-x="1913"
     inkscape:window-y="0"
     inkscape:window-maximized="0"
     inkscape:current-layer="layer1"
     showgrid="true"><inkscape:grid
       id="grid12"
       units="mm"
       originx="0"
       originy="0"
       spacingx="0.99999998"
       spacingy="1"
       empcolor="#0099e5"
       empopacity="0.30196078"
       color="#0099e5"
       opacity="0.14901961"
       empspacing="5"
       dotted="false"
       gridanglex="30"
       gridanglez="30"
       visible="true" /></sodipodi:namedview><defs
     id="defs1"><marker
       style="overflow:visible"
       id="ArrowTriangleStylized"
       refX="0"
       refY="0"
       orient="auto-start-reverse"
       inkscape:stockid="Stylized triangle arrow"
       markerWidth="1"
       markerHeight="1"
       viewBox="0 0 1 1"
       inkscape:isstock="true"
       inkscape:collect="always"
       preserveAspectRatio="xMidYMid"><path
         transform="scale(0.5)"
         style="fill:context-stroke;fill-rule:evenodd;stroke:context-stroke;stroke-width:1pt"
         d="m 6,0 c -3,1 -7,3 -9,5 0,0 0,-4 2,-5 -2,-1 -2,-5 -2,-5 2,2 6,4 9,5 z"
         id="path7" /></marker></defs><g
     inkscape:label="Layer 1"
     inkscape:groupmode="layer"
     id="layer1"><path
       style="fill:#babcbe;fill-opacity:1;stroke:#babcbe;stroke-width:0.1;stroke-linecap:square;stroke-linejoin:round;stroke-dasharray:none;stroke-opacity:1"
       d="m 32.549688,69.693591 c 0,-1.41069 -0.02069,-1.94514 -0.0775,-2.001946 -0.05722,-0.05722 -0.648658,-0.07749 -2.260262,-0.07749 h -2.182767 v -8.298394 -8.298394 h 12.463735 12.463735 v 8.298394 8.298394 h -9.480188 c -7.287376,0 -9.498115,0.01791 -9.557684,0.07749 -0.05681,0.05681 -0.07749,0.591256 -0.07749,2.001946 v 1.924452 h -0.64579 -0.64579 z"
       id="path3" /><path
       style="fill:none;stroke:#000000;stroke-width:0.264999;stroke-linecap:square;stroke-linejoin:round;stroke-opacity:1"
       d="m 27.835424,41.588838 v 26.219049 h 4.520525 v 4.003894 h 1.679054 v -4.01185 h 5.158991 13.956374 V 41.459679"
       id="path1"
       sodipodi:nodetypes="ccccccccc" /><path
       style="fill:none;stroke:#000000;stroke-width:0.264999;stroke-linecap:square;stroke-linejoin:round;stroke-opacity:1"
       d="m 27.770845,50.823627 h 25.379523 v 0.06458"
       id="path2" /><path
       style="fill:none;fill-rule:evenodd;stroke:#000000;stroke-width:0.264583px;stroke-linecap:butt;stroke-linejoin:miter;stroke-opacity:1"
       d="m 34.551634,44.688627 v 0"
       id="path4"
       inkscape:connector-type="polyline"
       inkscape:connector-curvature="0" /><path
       style="fill:#babcbe;fill-opacity:1;stroke:#000000;stroke-width:0.3;stroke-linecap:square;stroke-linejoin:round;stroke-dasharray:none;stroke-opacity:1;marker-end:url(#ArrowTriangleStylized)"
       d="M 36.809994,46.432258 V 35.066364"
       id="path6"
       sodipodi:nodetypes="cc" /><path
       style="fill:none;fill-opacity:1;stroke:#000000;stroke-width:0.3;stroke-linecap:square;stroke-linejoin:round;stroke-dasharray:none;stroke-opacity:1;marker-end:url(#ArrowTriangleStylized)"
       d="m 94.951969,33.839364 -46.259447,0 v 12.011684"
       id="path8"
       sodipodi:nodetypes="ccc" /><path
       style="fill:none;fill-opacity:1;stroke:#000000;stroke-width:0.3;stroke-linecap:square;stroke-linejoin:round;stroke-dasharray:none;stroke-opacity:1"
       d="m 27.720862,81.893364 v 18.128696 h 31.8874 V 97.411849 H 54.371873 V 81.623958"
       id="path9"
       sodipodi:nodetypes="cccccc" /><path
       style="fill:none;fill-opacity:1;stroke:#000000;stroke-width:0.3;stroke-linecap:square;stroke-linejoin:round;stroke-dasharray:none;stroke-opacity:1"
       d="M 27.781248,86.129437 H 54.371872"
       id="path11"
       sodipodi:nodetypes="cc" /><path
       style="fill:#babcbe;fill-opacity:1;stroke:#babcbe;stroke-width:0.0828143;stroke-linecap:square;stroke-linejoin:round;stroke-dasharray:none;stroke-opacity:1"
       d="m 27.917447,93.034114 v -6.776042 h 13.126221 13.126218 l 0.01701,5.899028 0.01701,5.384533 2.595579,0.0211 2.59558,0.0211 v 0.855911 1.370406 H 43.656248 27.917447 Z"
       id="path12"
       sodipodi:nodetypes="ccccccccccccc" /><path
       style="fill:none;fill-opacity:1;stroke:#000000;stroke-width:0.3;stroke-linecap:square;stroke-linejoin:round;stroke-dasharray:none;stroke-opacity:1"
       d="M 107.04675,81.612777 V 99.741475 H 75.159372 v -2.610217 h 5.23639 V 81.343371"
       id="path9-3"
       sodipodi:nodetypes="cccccc" /><path
       style="fill:none;fill-opacity:1;stroke:#000000;stroke-width:0.3;stroke-linecap:square;stroke-linejoin:round;stroke-dasharray:none;stroke-opacity:1"
       d="M 106.98636,86.105869 H 80.520719"
       id="path11-4"
       sodipodi:nodetypes="cc" /><path
       style="fill:#babcbe;fill-opacity:1;stroke:#babcbe;stroke-width:0.0821069;stroke-linecap:square;stroke-linejoin:round;stroke-dasharray:none;stroke-opacity:1"
       d="M 106.85052,92.869287 V 86.208642 H 93.72403 80.597516 l -0.017,5.29283 -0.09885,5.739321 c -1.7308,0.02258 -3.437491,-0.01093 -5.167892,-0.0412 l 0.05846,0.983263 v 1.347061 h 15.739146 15.739126 z"
       id="path12-5"
       sodipodi:nodetypes="cccccccccccc" /><path
       style="fill:#babcbe;fill-opacity:1;stroke:#000000;stroke-width:0.3;stroke-linecap:square;stroke-linejoin:round;stroke-dasharray:none;stroke-opacity:1;marker-end:url(#ArrowTriangleStylized)"
       d="m 94.985416,19.976041 0,63.898487"
       id="path13"
       sodipodi:nodetypes="cc" /><path
       style="fill:none;fill-opacity:1;stroke:#000000;stroke-width:0.3;stroke-linecap:square;stroke-linejoin:round;stroke-dasharray:none;stroke-opacity:1;marker-end:url(#ArrowTriangleStylized)"
       d="M 94.853124,69.849999 44.979166,70.114582 44.846874,83.777306"
       id="path14"
       sodipodi:nodetypes="ccc" /><path
       style="fill:none;fill-opacity:1;stroke:#000000;stroke-width:0.3;stroke-linecap:square;stroke-linejoin:round;stroke-dasharray:none;stroke-opacity:1;marker-end:url(#ArrowTriangleStylized)"
       d="m 59.77483,98.829589 h 4.864304 l 0.04677,6.173921"
       id="path15" /><path
       style="fill:none;fill-opacity:1;stroke:#000000;stroke-width:0.3;stroke-linecap:square;stroke-linejoin:round;stroke-dasharray:none;stroke-opacity:1;marker-end:url(#ArrowTriangleStylized)"
       d="m 74.91496,98.870305 h -4.864304 l -0.04677,6.173925"
       id="path15-2" /><ellipse
       style="fill:#ff0000;fill-rule:evenodd;stroke:#000000;stroke-width:0.284641;stroke-opacity:1;fill-opacity:0"
       id="path16"
       cx="67.292625"
       cy="108.37063"
       rx="3.4039931"
       ry="3.0458651" /><path
       style="fill:#ff0000;fill-opacity:0;stroke:#000000;stroke-width:0.3;stroke-linecap:square;stroke-linejoin:round;stroke-dasharray:none;stroke-opacity:1;marker-end:url(#ArrowTriangleStylized)"
       d="m 67.402603,111.42265 v 5.82084"
       id="path211" /><path
       style="fill:#ff0000;fill-opacity:0;stroke:#000000;stroke-width:0.291911;stroke-linecap:square;stroke-linejoin:round;marker-end:url(#ArrowTriangleStylized)"
       d="M 33.139062,71.826394 V 83.850725"
       id="path101" /><g
       inkscape:label=""
       transform="translate(65.479486,106.19769)"
       id="g20"><g
   fill="#000000"
   fill-opacity="1"
   id="g19"
   transform="matrix(0.352778,0,0,0.352778,-0.91806,-0.702733)">
    <g
   id="g18"
   transform="translate(1.993,1.992)">
      <path
   d="m 4.59375,5.828125 -3.875,4.78125 C 0.625,10.71875 0.625,10.75 0.625,10.78125 c 0,0.125 0.09375,0.125 0.296875,0.125 h 9.03125 l 0.9375,-2.71875 H 10.625 c -0.28125,0.828125 -1,1.484375 -1.9375,1.796875 -0.171875,0.0625 -0.921875,0.328125 -2.53125,0.328125 h -4.625 L 5.3125,5.625 C 5.390625,5.53125 5.40625,5.5 5.40625,5.453125 c 0,-0.046875 0,-0.046875 -0.078125,-0.15625 L 1.78125,0.4375 h 4.328125 c 1.234375,0 3.75,0.078125 4.515625,2.109375 h 0.265625 L 9.953125,0 H 0.921875 C 0.625,0 0.609375,0.015625 0.609375,0.34375 Z m 0,0"
   id="path18" />
    </g>
  </g>
</g><g
       inkscape:label=""
       transform="translate(30.942074,88.38876)"
       id="g166"><g
   fill="#000000"
   fill-opacity="1"
   id="g164"
   transform="matrix(0.352778,0,0,0.352778,-0.802305,-0.706305)">
    <g
   id="use18"
   transform="translate(1.993,10.174)">
      <path
   d="m 7.03125,-7.578125 c 0,-0.03125 -0.015625,-0.109375 -0.109375,-0.109375 -0.0625,0 -0.078125,0.015625 -0.203125,0.15625 l -0.53125,0.625 C 5.90625,-7.421875 5.34375,-7.6875 4.640625,-7.6875 3.25,-7.6875 1.9375,-6.4375 1.9375,-5.109375 c 0,0.875 0.578125,1.375 1.140625,1.546875 L 4.25,-3.265625 c 0.390625,0.109375 1,0.265625 1,1.15625 0,0.984375 -0.890625,2.015625 -1.96875,2.015625 -0.703125,0 -1.90625,-0.25 -1.90625,-1.59375 0,-0.265625 0.046875,-0.53125 0.0625,-0.59375 0.015625,-0.046875 0.03125,-0.046875 0.03125,-0.078125 0,-0.109375 -0.078125,-0.109375 -0.140625,-0.109375 -0.046875,0 -0.078125,0 -0.109375,0.03125 C 1.171875,-2.390625 0.5625,0.09375 0.5625,0.125 c 0,0.078125 0.0625,0.109375 0.125,0.109375 0.046875,0 0.0625,0 0.203125,-0.15625 l 0.53125,-0.625 c 0.46875,0.640625 1.203125,0.78125 1.84375,0.78125 1.484375,0 2.765625,-1.4375 2.765625,-2.796875 0,-0.75 -0.375,-1.125 -0.53125,-1.28125 C 5.25,-4.09375 5.078125,-4.140625 4.109375,-4.390625 3.875,-4.453125 3.484375,-4.5625 3.375,-4.578125 3.09375,-4.671875 2.71875,-5 2.71875,-5.578125 c 0,-0.875 0.875,-1.8125 1.90625,-1.8125 0.90625,0 1.5625,0.46875 1.5625,1.703125 0,0.34375 -0.03125,0.546875 -0.03125,0.609375 0,0 0,0.109375 0.125,0.109375 0.109375,0 0.125,-0.03125 0.171875,-0.21875 z m 0,0"
   id="path43" />
    </g>
  </g>
  <g
   fill="#000000"
   fill-opacity="1"
   id="g165"
   transform="matrix(0.352778,0,0,0.352778,-0.802305,-0.706305)">
    <g
   id="use19"
   transform="translate(8.6820002,11.81)">
      <path
   d="m 2.5,-5.078125 c 0,-0.21875 -0.015625,-0.21875 -0.234375,-0.21875 -0.328125,0.3125 -0.75,0.5 -1.5,0.5 v 0.265625 c 0.21875,0 0.640625,0 1.109375,-0.203125 v 4.078125 c 0,0.296875 -0.03125,0.390625 -0.78125,0.390625 H 0.8125 V 0 c 0.328125,-0.03125 1.015625,-0.03125 1.375,-0.03125 0.359375,0 1.046875,0 1.375,0.03125 V -0.265625 H 3.28125 c -0.75,0 -0.78125,-0.09375 -0.78125,-0.390625 z m 0,0"
   id="path44" />
    </g>
  </g>
  <g
   fill="#000000"
   fill-opacity="1"
   id="g21"
   transform="matrix(0.352778,0,0,0.352778,-0.802305,-0.706305)">
    <g
   id="use20"
   transform="translate(13.414,10.174)">
      <path
   d="m 3.609375,2.625 c 0,-0.046875 0,-0.0625 -0.1875,-0.25 C 2.0625,1 1.71875,-1.0625 1.71875,-2.71875 c 0,-1.90625 0.40625,-3.796875 1.75,-5.171875 0.140625,-0.125 0.140625,-0.140625 0.140625,-0.1875 0,-0.0625 -0.046875,-0.09375 -0.109375,-0.09375 -0.109375,0 -1.09375,0.734375 -1.734375,2.125 -0.5625,1.1875 -0.6875,2.40625 -0.6875,3.328125 0,0.84375 0.125,2.15625 0.71875,3.390625 C 2.453125,2.015625 3.390625,2.71875 3.5,2.71875 3.5625,2.71875 3.609375,2.6875 3.609375,2.625 Z m 0,0"
   id="path45" />
    </g>
  </g>
  <g
   fill="#000000"
   fill-opacity="1"
   id="g22"
   transform="matrix(0.352778,0,0,0.352778,-0.802305,-0.706305)">
    <g
   id="use21"
   transform="translate(17.656549,10.174)">
      <path
   d="m 2.25,-4.359375 h 1.015625 c 0.21875,0 0.328125,0 0.328125,-0.21875 0,-0.125 -0.109375,-0.125 -0.296875,-0.125 H 2.328125 C 2.71875,-6.25 2.78125,-6.46875 2.78125,-6.53125 c 0,-0.1875 -0.125,-0.296875 -0.3125,-0.296875 -0.03125,0 -0.34375,0.015625 -0.4375,0.390625 l -0.421875,1.734375 h -1.03125 c -0.21875,0 -0.328125,0 -0.328125,0.203125 0,0.140625 0.09375,0.140625 0.3125,0.140625 h 0.953125 c -0.78125,3.09375 -0.828125,3.28125 -0.828125,3.46875 0,0.59375 0.40625,1.015625 1,1.015625 1.109375,0 1.734375,-1.59375 1.734375,-1.6875 0,-0.109375 -0.078125,-0.109375 -0.125,-0.109375 -0.09375,0 -0.109375,0.03125 -0.171875,0.15625 C 2.65625,-0.375 2.078125,-0.125 1.71875,-0.125 c -0.234375,0 -0.34375,-0.140625 -0.34375,-0.5 0,-0.265625 0.015625,-0.328125 0.0625,-0.515625 z m 0,0"
   id="path46" />
    </g>
  </g>
  <g
   fill="#000000"
   fill-opacity="1"
   id="g23"
   transform="matrix(0.352778,0,0,0.352778,-0.802305,-0.706305)">
    <g
   id="use22"
   transform="translate(21.595825,10.174)">
      <path
   d="m 3.15625,-2.71875 c 0,-0.859375 -0.125,-2.171875 -0.71875,-3.40625 -0.65625,-1.34375 -1.59375,-2.046875 -1.703125,-2.046875 -0.0625,0 -0.109375,0.03125 -0.109375,0.09375 0,0.046875 0,0.0625 0.203125,0.265625 1.0625,1.078125 1.6875,2.8125 1.6875,5.09375 0,1.859375 -0.40625,3.78125 -1.75,5.15625 C 0.625,2.5625 0.625,2.578125 0.625,2.625 c 0,0.0625 0.046875,0.09375 0.109375,0.09375 0.109375,0 1.09375,-0.734375 1.734375,-2.125 0.546875,-1.1875 0.6875,-2.40625 0.6875,-3.3125 z m 0,0"
   id="path47" />
    </g>
  </g>
  <g
   fill="#000000"
   fill-opacity="1"
   id="g25"
   transform="matrix(0.352778,0,0,0.352778,-0.802305,-0.706305)">
    <g
   id="use23"
   transform="translate(1.993,21.375)">
      <path
   d="m 2.078125,-1.9375 c 0.21875,0.046875 1.03125,0.203125 1.03125,0.921875 0,0.5 -0.34375,0.90625 -1.125,0.90625 -0.84375,0 -1.203125,-0.5625 -1.390625,-1.421875 C 0.5625,-1.65625 0.5625,-1.6875 0.453125,-1.6875 c -0.125,0 -0.125,0.0625 -0.125,0.234375 V -0.125 c 0,0.171875 0,0.234375 0.109375,0.234375 0.046875,0 0.0625,-0.015625 0.25,-0.203125 0.015625,-0.015625 0.015625,-0.03125 0.203125,-0.21875 0.4375,0.40625 0.890625,0.421875 1.09375,0.421875 1.140625,0 1.609375,-0.671875 1.609375,-1.390625 0,-0.515625 -0.296875,-0.828125 -0.421875,-0.9375 C 2.84375,-2.546875 2.453125,-2.625 2.03125,-2.703125 1.46875,-2.8125 0.8125,-2.9375 0.8125,-3.515625 c 0,-0.359375 0.25,-0.765625 1.109375,-0.765625 1.09375,0 1.15625,0.90625 1.171875,1.203125 0,0.09375 0.09375,0.09375 0.109375,0.09375 0.140625,0 0.140625,-0.046875 0.140625,-0.234375 v -1.015625 c 0,-0.15625 0,-0.234375 -0.109375,-0.234375 -0.046875,0 -0.078125,0 -0.203125,0.125 -0.03125,0.03125 -0.125,0.125 -0.171875,0.15625 -0.375,-0.28125 -0.78125,-0.28125 -0.9375,-0.28125 -1.21875,0 -1.59375,0.671875 -1.59375,1.234375 0,0.34375 0.15625,0.625 0.421875,0.84375 0.328125,0.25 0.609375,0.3125 1.328125,0.453125 z m 0,0"
   id="path48" />
    </g>
    <g
   id="use24"
   transform="translate(5.9222488,21.375)">
      <path
   d="M 1.765625,-6.921875 0.328125,-6.8125 V -6.5 c 0.703125,0 0.78125,0.0625 0.78125,0.5625 V -0.75 c 0,0.4375 -0.109375,0.4375 -0.78125,0.4375 V 0 C 0.65625,-0.015625 1.1875,-0.03125 1.4375,-0.03125 c 0.25,0 0.734375,0.015625 1.109375,0.03125 v -0.3125 c -0.671875,0 -0.78125,0 -0.78125,-0.4375 z m 0,0"
   id="path49" />
    </g>
    <g
   id="use25"
   transform="translate(8.6898603,21.375)">
      <path
   d="M 4.6875,-2.140625 C 4.6875,-3.40625 3.703125,-4.46875 2.5,-4.46875 c -1.25,0 -2.21875,1.09375 -2.21875,2.328125 0,1.296875 1.03125,2.25 2.203125,2.25 1.203125,0 2.203125,-0.984375 2.203125,-2.25 z m -2.1875,2 c -0.4375,0 -0.875,-0.203125 -1.140625,-0.671875 -0.25,-0.4375 -0.25,-1.046875 -0.25,-1.40625 0,-0.390625 0,-0.921875 0.234375,-1.359375 C 1.609375,-4.03125 2.078125,-4.25 2.484375,-4.25 c 0.4375,0 0.859375,0.21875 1.125,0.65625 0.265625,0.421875 0.265625,1 0.265625,1.375 0,0.359375 0,0.90625 -0.21875,1.34375 C 3.421875,-0.421875 2.984375,-0.140625 2.5,-0.140625 Z m 0,0"
   id="path50" />
    </g>
  </g>
  <g
   fill="#000000"
   fill-opacity="1"
   id="g26"
   transform="matrix(0.352778,0,0,0.352778,-0.802305,-0.706305)">
    <g
   id="use26"
   transform="translate(13.392207,21.375)">
      <path
   d="m 6.171875,-3.34375 c 0.171875,-0.5 0.484375,-0.640625 0.84375,-0.640625 v -0.3125 C 6.78125,-4.28125 6.5,-4.265625 6.28125,-4.265625 c -0.296875,0 -0.734375,-0.015625 -0.921875,-0.03125 v 0.3125 c 0.359375,0 0.578125,0.1875 0.578125,0.46875 0,0.0625 0,0.09375 -0.0625,0.21875 L 4.96875,-0.75 3.984375,-3.53125 C 3.953125,-3.65625 3.9375,-3.671875 3.9375,-3.71875 c 0,-0.265625 0.390625,-0.265625 0.59375,-0.265625 v -0.3125 c -0.296875,0.015625 -0.796875,0.03125 -1.046875,0.03125 -0.296875,0 -0.578125,-0.015625 -0.875,-0.03125 v 0.3125 c 0.359375,0 0.515625,0.015625 0.625,0.140625 0.046875,0.0625 0.15625,0.359375 0.21875,0.546875 L 2.609375,-0.875 1.65625,-3.53125 C 1.609375,-3.65625 1.609375,-3.671875 1.609375,-3.71875 1.609375,-3.984375 2,-3.984375 2.1875,-3.984375 v -0.3125 c -0.296875,0.015625 -0.859375,0.03125 -1.078125,0.03125 -0.046875,0 -0.578125,-0.015625 -0.9375,-0.03125 v 0.3125 c 0.5,0 0.625,0.03125 0.75,0.34375 l 1.25,3.53125 C 2.21875,0.03125 2.25,0.109375 2.375,0.109375 c 0.140625,0 0.15625,-0.0625 0.203125,-0.203125 l 1.015625,-2.8125 1.015625,2.828125 c 0.03125,0.109375 0.0625,0.1875 0.203125,0.1875 0.125,0 0.15625,-0.09375 0.1875,-0.1875 z m 0,0"
   id="path51" />
    </g>
  </g>
  <g
   fill="#000000"
   fill-opacity="1"
   id="g34"
   transform="matrix(0.352778,0,0,0.352778,-0.802305,-0.706305)">
    <g
   id="use27"
   transform="translate(23.914705,21.375)">
      <path
   d="M 1.671875,-3.3125 V -4.40625 L 0.28125,-4.296875 v 0.3125 c 0.703125,0 0.78125,0.0625 0.78125,0.5625 V -0.75 c 0,0.4375 -0.109375,0.4375 -0.78125,0.4375 V 0 c 0.390625,-0.015625 0.859375,-0.03125 1.140625,-0.03125 0.390625,0 0.859375,0 1.265625,0.03125 V -0.3125 H 2.46875 c -0.734375,0 -0.75,-0.109375 -0.75,-0.46875 V -2.3125 c 0,-0.984375 0.421875,-1.875 1.171875,-1.875 0.0625,0 0.09375,0 0.109375,0.015625 -0.03125,0 -0.234375,0.125 -0.234375,0.390625 0,0.265625 0.21875,0.421875 0.4375,0.421875 0.171875,0 0.421875,-0.125 0.421875,-0.4375 0,-0.3125 -0.3125,-0.609375 -0.734375,-0.609375 -0.734375,0 -1.09375,0.671875 -1.21875,1.09375 z m 0,0"
   id="path52" />
    </g>
    <g
   id="use28"
   transform="translate(27.817055,21.375)">
      <path
   d="M 1.109375,-2.515625 C 1.171875,-4 2.015625,-4.25 2.359375,-4.25 c 1.015625,0 1.125,1.34375 1.125,1.734375 z m 0,0.21875 h 2.78125 c 0.21875,0 0.25,0 0.25,-0.21875 0,-0.984375 -0.546875,-1.953125 -1.78125,-1.953125 -1.15625,0 -2.078125,1.03125 -2.078125,2.28125 0,1.328125 1.046875,2.296875 2.1875,2.296875 C 3.6875,0.109375 4.140625,-1 4.140625,-1.1875 4.140625,-1.28125 4.0625,-1.3125 4,-1.3125 c -0.078125,0 -0.109375,0.0625 -0.125,0.140625 -0.34375,1.03125 -1.25,1.03125 -1.34375,1.03125 -0.5,0 -0.890625,-0.296875 -1.125,-0.671875 -0.296875,-0.46875 -0.296875,-1.125 -0.296875,-1.484375 z m 0,0"
   id="path53" />
    </g>
    <g
   id="use29"
   transform="translate(32.244434,21.375)">
      <path
   d="m 3.3125,-0.75 c 0.046875,0.390625 0.3125,0.8125 0.78125,0.8125 0.21875,0 0.828125,-0.140625 0.828125,-0.953125 v -0.5625 h -0.25 v 0.5625 c 0,0.578125 -0.25,0.640625 -0.359375,0.640625 -0.328125,0 -0.375,-0.453125 -0.375,-0.5 v -1.984375 c 0,-0.421875 0,-0.8125 -0.359375,-1.1875 C 3.1875,-4.3125 2.6875,-4.46875 2.21875,-4.46875 c -0.828125,0 -1.515625,0.46875 -1.515625,1.125 0,0.296875 0.203125,0.46875 0.46875,0.46875 0.28125,0 0.453125,-0.203125 0.453125,-0.453125 0,-0.125 -0.046875,-0.453125 -0.515625,-0.453125 C 1.390625,-4.140625 1.875,-4.25 2.1875,-4.25 c 0.5,0 1.0625,0.390625 1.0625,1.28125 v 0.359375 c -0.515625,0.03125 -1.203125,0.0625 -1.828125,0.359375 -0.75,0.34375 -1,0.859375 -1,1.296875 0,0.8125 0.96875,1.0625 1.59375,1.0625 0.65625,0 1.109375,-0.40625 1.296875,-0.859375 z M 3.25,-2.390625 v 1 c 0,0.9375 -0.71875,1.28125 -1.171875,1.28125 -0.484375,0 -0.890625,-0.34375 -0.890625,-0.84375 0,-0.546875 0.421875,-1.375 2.0625,-1.4375 z m 0,0"
   id="path54" />
    </g>
    <g
   id="use30"
   transform="translate(37.225735,21.375)">
      <path
   d="m 1.171875,-2.171875 c 0,-1.625 0.8125,-2.046875 1.34375,-2.046875 0.09375,0 0.71875,0.015625 1.0625,0.375 -0.40625,0.03125 -0.46875,0.328125 -0.46875,0.453125 0,0.265625 0.1875,0.453125 0.453125,0.453125 0.265625,0 0.46875,-0.15625 0.46875,-0.46875 0,-0.671875 -0.765625,-1.0625 -1.53125,-1.0625 -1.25,0 -2.15625,1.078125 -2.15625,2.3125 0,1.28125 0.984375,2.265625 2.140625,2.265625 1.328125,0 1.65625,-1.203125 1.65625,-1.296875 0,-0.09375 -0.109375,-0.09375 -0.140625,-0.09375 -0.078125,0 -0.109375,0.03125 -0.125,0.09375 -0.28125,0.921875 -0.9375,1.046875 -1.296875,1.046875 -0.53125,0 -1.40625,-0.421875 -1.40625,-2.03125 z m 0,0"
   id="path55" />
    </g>
    <g
   id="use31"
   transform="translate(41.653114,21.375)">
      <path
   d="m 1.71875,-3.984375 h 1.4375 v -0.3125 H 1.71875 V -6.125 h -0.25 c 0,0.8125 -0.296875,1.875 -1.28125,1.921875 v 0.21875 h 0.84375 v 2.75 c 0,1.21875 0.9375,1.34375 1.296875,1.34375 0.703125,0 0.984375,-0.703125 0.984375,-1.34375 v -0.5625 h -0.25 V -1.25 c 0,0.734375 -0.296875,1.109375 -0.671875,1.109375 -0.671875,0 -0.671875,-0.90625 -0.671875,-1.078125 z m 0,0"
   id="path56" />
    </g>
    <g
   id="use32"
   transform="translate(45.527569,21.375)">
      <path
   d="M 1.765625,-4.40625 0.375,-4.296875 v 0.3125 c 0.640625,0 0.734375,0.0625 0.734375,0.546875 V -0.75 c 0,0.4375 -0.109375,0.4375 -0.78125,0.4375 V 0 C 0.640625,-0.015625 1.1875,-0.03125 1.421875,-0.03125 1.78125,-0.03125 2.125,-0.015625 2.46875,0 v -0.3125 c -0.671875,0 -0.703125,-0.046875 -0.703125,-0.4375 z m 0.03125,-1.734375 c 0,-0.3125 -0.234375,-0.53125 -0.515625,-0.53125 -0.3125,0 -0.53125,0.265625 -0.53125,0.53125 0,0.265625 0.21875,0.53125 0.53125,0.53125 0.28125,0 0.515625,-0.21875 0.515625,-0.53125 z m 0,0"
   id="path57" />
    </g>
    <g
   id="use33"
   transform="translate(48.295181,21.375)">
      <path
   d="M 1.09375,-3.421875 V -0.75 c 0,0.4375 -0.109375,0.4375 -0.78125,0.4375 V 0 c 0.359375,-0.015625 0.859375,-0.03125 1.140625,-0.03125 0.25,0 0.765625,0.015625 1.109375,0.03125 v -0.3125 c -0.671875,0 -0.78125,0 -0.78125,-0.4375 V -2.59375 C 1.78125,-3.625 2.5,-4.1875 3.125,-4.1875 c 0.640625,0 0.75,0.53125 0.75,1.109375 V -0.75 c 0,0.4375 -0.109375,0.4375 -0.78125,0.4375 V 0 c 0.34375,-0.015625 0.859375,-0.03125 1.125,-0.03125 0.25,0 0.78125,0.015625 1.109375,0.03125 v -0.3125 c -0.515625,0 -0.765625,0 -0.765625,-0.296875 v -1.90625 c 0,-0.859375 0,-1.15625 -0.3125,-1.515625 -0.140625,-0.171875 -0.46875,-0.375 -1.046875,-0.375 C 2.46875,-4.40625 2,-3.984375 1.71875,-3.359375 V -4.40625 L 0.3125,-4.296875 v 0.3125 c 0.703125,0 0.78125,0.0625 0.78125,0.5625 z m 0,0"
   id="path58" />
    </g>
    <g
   id="use34"
   transform="translate(53.830399,21.375)">
      <path
   d="m 2.21875,-1.71875 c -0.875,0 -0.875,-1 -0.875,-1.21875 0,-0.265625 0.015625,-0.59375 0.15625,-0.84375 0.078125,-0.109375 0.3125,-0.390625 0.71875,-0.390625 0.859375,0 0.859375,0.984375 0.859375,1.21875 0,0.265625 0,0.59375 -0.15625,0.84375 C 2.84375,-2 2.609375,-1.71875 2.21875,-1.71875 Z M 1.0625,-1.328125 c 0,-0.03125 0,-0.265625 0.15625,-0.46875 0.390625,0.28125 0.8125,0.3125 1,0.3125 0.921875,0 1.609375,-0.6875 1.609375,-1.453125 0,-0.375 -0.15625,-0.734375 -0.40625,-0.96875 C 3.78125,-4.25 4.140625,-4.296875 4.3125,-4.296875 c 0.03125,0 0.078125,0 0.109375,0.015625 C 4.3125,-4.25 4.25,-4.140625 4.25,-4.015625 c 0,0.171875 0.140625,0.28125 0.296875,0.28125 0.09375,0 0.28125,-0.0625 0.28125,-0.296875 0,-0.171875 -0.109375,-0.484375 -0.5,-0.484375 -0.203125,0 -0.640625,0.0625 -1.0625,0.46875 C 2.84375,-4.375 2.4375,-4.40625 2.21875,-4.40625 c -0.9375,0 -1.625,0.6875 -1.625,1.453125 0,0.4375 0.21875,0.8125 0.46875,1.03125 -0.125,0.140625 -0.3125,0.46875 -0.3125,0.828125 0,0.3125 0.140625,0.6875 0.453125,0.890625 -0.609375,0.15625 -0.921875,0.59375 -0.921875,0.984375 0,0.71875 0.984375,1.265625 2.203125,1.265625 1.171875,0 2.203125,-0.5 2.203125,-1.28125 0,-0.34375 -0.125,-0.859375 -0.640625,-1.140625 -0.53125,-0.265625 -1.109375,-0.265625 -1.71875,-0.265625 -0.25,0 -0.671875,0 -0.75,-0.015625 C 1.265625,-0.703125 1.0625,-1 1.0625,-1.328125 Z M 2.5,1.828125 c -1.015625,0 -1.703125,-0.515625 -1.703125,-1.046875 0,-0.453125 0.375,-0.828125 0.8125,-0.84375 h 0.59375 c 0.859375,0 1.96875,0 1.96875,0.84375 0,0.546875 -0.703125,1.046875 -1.671875,1.046875 z m 0,0"
   id="path59" />
    </g>
  </g>
  <g
   fill="#000000"
   fill-opacity="1"
   id="g40"
   transform="matrix(0.352778,0,0,0.352778,-0.802305,-0.706305)">
    <g
   id="use35"
   transform="translate(1.993,31.921)">
      <path
   d="M 1.671875,-3.3125 V -4.40625 L 0.28125,-4.296875 v 0.3125 c 0.703125,0 0.78125,0.0625 0.78125,0.5625 V -0.75 c 0,0.4375 -0.109375,0.4375 -0.78125,0.4375 V 0 c 0.390625,-0.015625 0.859375,-0.03125 1.140625,-0.03125 0.390625,0 0.859375,0 1.265625,0.03125 V -0.3125 H 2.46875 c -0.734375,0 -0.75,-0.109375 -0.75,-0.46875 V -2.3125 c 0,-0.984375 0.421875,-1.875 1.171875,-1.875 0.0625,0 0.09375,0 0.109375,0.015625 -0.03125,0 -0.234375,0.125 -0.234375,0.390625 0,0.265625 0.21875,0.421875 0.4375,0.421875 0.171875,0 0.421875,-0.125 0.421875,-0.4375 0,-0.3125 -0.3125,-0.609375 -0.734375,-0.609375 -0.734375,0 -1.09375,0.671875 -1.21875,1.09375 z m 0,0"
   id="path60" />
    </g>
    <g
   id="use36"
   transform="translate(5.89535,31.921)">
      <path
   d="M 1.109375,-2.515625 C 1.171875,-4 2.015625,-4.25 2.359375,-4.25 c 1.015625,0 1.125,1.34375 1.125,1.734375 z m 0,0.21875 h 2.78125 c 0.21875,0 0.25,0 0.25,-0.21875 0,-0.984375 -0.546875,-1.953125 -1.78125,-1.953125 -1.15625,0 -2.078125,1.03125 -2.078125,2.28125 0,1.328125 1.046875,2.296875 2.1875,2.296875 C 3.6875,0.109375 4.140625,-1 4.140625,-1.1875 4.140625,-1.28125 4.0625,-1.3125 4,-1.3125 c -0.078125,0 -0.109375,0.0625 -0.125,0.140625 -0.34375,1.03125 -1.25,1.03125 -1.34375,1.03125 -0.5,0 -0.890625,-0.296875 -1.125,-0.671875 -0.296875,-0.46875 -0.296875,-1.125 -0.296875,-1.484375 z m 0,0"
   id="path61" />
    </g>
    <g
   id="use37"
   transform="translate(10.32273,31.921)">
      <path
   d="m 2.078125,-1.9375 c 0.21875,0.046875 1.03125,0.203125 1.03125,0.921875 0,0.5 -0.34375,0.90625 -1.125,0.90625 -0.84375,0 -1.203125,-0.5625 -1.390625,-1.421875 C 0.5625,-1.65625 0.5625,-1.6875 0.453125,-1.6875 c -0.125,0 -0.125,0.0625 -0.125,0.234375 V -0.125 c 0,0.171875 0,0.234375 0.109375,0.234375 0.046875,0 0.0625,-0.015625 0.25,-0.203125 0.015625,-0.015625 0.015625,-0.03125 0.203125,-0.21875 0.4375,0.40625 0.890625,0.421875 1.09375,0.421875 1.140625,0 1.609375,-0.671875 1.609375,-1.390625 0,-0.515625 -0.296875,-0.828125 -0.421875,-0.9375 C 2.84375,-2.546875 2.453125,-2.625 2.03125,-2.703125 1.46875,-2.8125 0.8125,-2.9375 0.8125,-3.515625 c 0,-0.359375 0.25,-0.765625 1.109375,-0.765625 1.09375,0 1.15625,0.90625 1.171875,1.203125 0,0.09375 0.09375,0.09375 0.109375,0.09375 0.140625,0 0.140625,-0.046875 0.140625,-0.234375 v -1.015625 c 0,-0.15625 0,-0.234375 -0.109375,-0.234375 -0.046875,0 -0.078125,0 -0.203125,0.125 -0.03125,0.03125 -0.125,0.125 -0.171875,0.15625 -0.375,-0.28125 -0.78125,-0.28125 -0.9375,-0.28125 -1.21875,0 -1.59375,0.671875 -1.59375,1.234375 0,0.34375 0.15625,0.625 0.421875,0.84375 0.328125,0.25 0.609375,0.3125 1.328125,0.453125 z m 0,0"
   id="path62" />
    </g>
    <g
   id="use38"
   transform="translate(14.251979,31.921)">
      <path
   d="M 1.109375,-2.515625 C 1.171875,-4 2.015625,-4.25 2.359375,-4.25 c 1.015625,0 1.125,1.34375 1.125,1.734375 z m 0,0.21875 h 2.78125 c 0.21875,0 0.25,0 0.25,-0.21875 0,-0.984375 -0.546875,-1.953125 -1.78125,-1.953125 -1.15625,0 -2.078125,1.03125 -2.078125,2.28125 0,1.328125 1.046875,2.296875 2.1875,2.296875 C 3.6875,0.109375 4.140625,-1 4.140625,-1.1875 4.140625,-1.28125 4.0625,-1.3125 4,-1.3125 c -0.078125,0 -0.109375,0.0625 -0.125,0.140625 -0.34375,1.03125 -1.25,1.03125 -1.34375,1.03125 -0.5,0 -0.890625,-0.296875 -1.125,-0.671875 -0.296875,-0.46875 -0.296875,-1.125 -0.296875,-1.484375 z m 0,0"
   id="path63" />
    </g>
    <g
   id="use39"
   transform="translate(18.679359,31.921)">
      <path
   d="M 1.671875,-3.3125 V -4.40625 L 0.28125,-4.296875 v 0.3125 c 0.703125,0 0.78125,0.0625 0.78125,0.5625 V -0.75 c 0,0.4375 -0.109375,0.4375 -0.78125,0.4375 V 0 c 0.390625,-0.015625 0.859375,-0.03125 1.140625,-0.03125 0.390625,0 0.859375,0 1.265625,0.03125 V -0.3125 H 2.46875 c -0.734375,0 -0.75,-0.109375 -0.75,-0.46875 V -2.3125 c 0,-0.984375 0.421875,-1.875 1.171875,-1.875 0.0625,0 0.09375,0 0.109375,0.015625 -0.03125,0 -0.234375,0.125 -0.234375,0.390625 0,0.265625 0.21875,0.421875 0.4375,0.421875 0.171875,0 0.421875,-0.125 0.421875,-0.4375 0,-0.3125 -0.3125,-0.609375 -0.734375,-0.609375 -0.734375,0 -1.09375,0.671875 -1.21875,1.09375 z m 0,0"
   id="path64" />
    </g>
    <g
   id="use40"
   transform="translate(22.581709,31.921)">
      <path
   d="M 4.140625,-3.3125 C 4.234375,-3.546875 4.40625,-3.984375 5.0625,-3.984375 v -0.3125 c -0.234375,0.015625 -0.515625,0.03125 -0.75,0.03125 -0.234375,0 -0.6875,-0.015625 -0.859375,-0.03125 v 0.3125 c 0.359375,0 0.46875,0.234375 0.46875,0.421875 0,0.09375 -0.015625,0.140625 -0.046875,0.25 L 2.84375,-0.78125 1.734375,-3.5625 c -0.0625,-0.125 -0.0625,-0.140625 -0.0625,-0.171875 0,-0.25 0.390625,-0.25 0.578125,-0.25 v -0.3125 c -0.3125,0.015625 -0.859375,0.03125 -1.09375,0.03125 -0.265625,0 -0.671875,-0.015625 -0.96875,-0.03125 v 0.3125 c 0.625,0 0.671875,0.0625 0.796875,0.359375 l 1.4375,3.546875 C 2.484375,0.0625 2.5,0.109375 2.625,0.109375 c 0.140625,0 0.171875,-0.09375 0.21875,-0.1875 z m 0,0"
   id="path65" />
    </g>
  </g>
  <g
   fill="#000000"
   fill-opacity="1"
   id="g43"
   transform="matrix(0.352778,0,0,0.352778,-0.802305,-0.706305)">
    <g
   id="use41"
   transform="translate(27.561016,31.921)">
      <path
   d="M 4.6875,-2.140625 C 4.6875,-3.40625 3.703125,-4.46875 2.5,-4.46875 c -1.25,0 -2.21875,1.09375 -2.21875,2.328125 0,1.296875 1.03125,2.25 2.203125,2.25 1.203125,0 2.203125,-0.984375 2.203125,-2.25 z m -2.1875,2 c -0.4375,0 -0.875,-0.203125 -1.140625,-0.671875 -0.25,-0.4375 -0.25,-1.046875 -0.25,-1.40625 0,-0.390625 0,-0.921875 0.234375,-1.359375 C 1.609375,-4.03125 2.078125,-4.25 2.484375,-4.25 c 0.4375,0 0.859375,0.21875 1.125,0.65625 0.265625,0.421875 0.265625,1 0.265625,1.375 0,0.359375 0,0.90625 -0.21875,1.34375 C 3.421875,-0.421875 2.984375,-0.140625 2.5,-0.140625 Z m 0,0"
   id="path66" />
    </g>
    <g
   id="use42"
   transform="translate(32.542316,31.921)">
      <path
   d="M 1.765625,-4.40625 0.375,-4.296875 v 0.3125 c 0.640625,0 0.734375,0.0625 0.734375,0.546875 V -0.75 c 0,0.4375 -0.109375,0.4375 -0.78125,0.4375 V 0 C 0.640625,-0.015625 1.1875,-0.03125 1.421875,-0.03125 1.78125,-0.03125 2.125,-0.015625 2.46875,0 v -0.3125 c -0.671875,0 -0.703125,-0.046875 -0.703125,-0.4375 z m 0.03125,-1.734375 c 0,-0.3125 -0.234375,-0.53125 -0.515625,-0.53125 -0.3125,0 -0.53125,0.265625 -0.53125,0.53125 0,0.265625 0.21875,0.53125 0.53125,0.53125 0.28125,0 0.515625,-0.21875 0.515625,-0.53125 z m 0,0"
   id="path67" />
    </g>
    <g
   id="use43"
   transform="translate(35.309929,31.921)">
      <path
   d="M 1.671875,-3.3125 V -4.40625 L 0.28125,-4.296875 v 0.3125 c 0.703125,0 0.78125,0.0625 0.78125,0.5625 V -0.75 c 0,0.4375 -0.109375,0.4375 -0.78125,0.4375 V 0 c 0.390625,-0.015625 0.859375,-0.03125 1.140625,-0.03125 0.390625,0 0.859375,0 1.265625,0.03125 V -0.3125 H 2.46875 c -0.734375,0 -0.75,-0.109375 -0.75,-0.46875 V -2.3125 c 0,-0.984375 0.421875,-1.875 1.171875,-1.875 0.0625,0 0.09375,0 0.109375,0.015625 -0.03125,0 -0.234375,0.125 -0.234375,0.390625 0,0.265625 0.21875,0.421875 0.4375,0.421875 0.171875,0 0.421875,-0.125 0.421875,-0.4375 0,-0.3125 -0.3125,-0.609375 -0.734375,-0.609375 -0.734375,0 -1.09375,0.671875 -1.21875,1.09375 z m 0,0"
   id="path68" />
    </g>
  </g>
</g><g
       inkscape:label=""
       transform="translate(83.014581,88.393897)"
       id="g198"><g
   fill="#000000"
   fill-opacity="1"
   id="g167"
   transform="matrix(0.352778,0,0,0.352778,-0.802305,-0.706305)">
    <g
   id="use17"
   transform="translate(1.993,10.174)">
      <path
   d="m 7.03125,-7.578125 c 0,-0.03125 -0.015625,-0.109375 -0.109375,-0.109375 -0.0625,0 -0.078125,0.015625 -0.203125,0.15625 l -0.53125,0.625 C 5.90625,-7.421875 5.34375,-7.6875 4.640625,-7.6875 3.25,-7.6875 1.9375,-6.4375 1.9375,-5.109375 c 0,0.875 0.578125,1.375 1.140625,1.546875 L 4.25,-3.265625 c 0.390625,0.109375 1,0.265625 1,1.15625 0,0.984375 -0.890625,2.015625 -1.96875,2.015625 -0.703125,0 -1.90625,-0.25 -1.90625,-1.59375 0,-0.265625 0.046875,-0.53125 0.0625,-0.59375 0.015625,-0.046875 0.03125,-0.046875 0.03125,-0.078125 0,-0.109375 -0.078125,-0.109375 -0.140625,-0.109375 -0.046875,0 -0.078125,0 -0.109375,0.03125 C 1.171875,-2.390625 0.5625,0.09375 0.5625,0.125 c 0,0.078125 0.0625,0.109375 0.125,0.109375 0.046875,0 0.0625,0 0.203125,-0.15625 l 0.53125,-0.625 c 0.46875,0.640625 1.203125,0.78125 1.84375,0.78125 1.484375,0 2.765625,-1.4375 2.765625,-2.796875 0,-0.75 -0.375,-1.125 -0.53125,-1.28125 C 5.25,-4.09375 5.078125,-4.140625 4.109375,-4.390625 3.875,-4.453125 3.484375,-4.5625 3.375,-4.578125 3.09375,-4.671875 2.71875,-5 2.71875,-5.578125 c 0,-0.875 0.875,-1.8125 1.90625,-1.8125 0.90625,0 1.5625,0.46875 1.5625,1.703125 0,0.34375 -0.03125,0.546875 -0.03125,0.609375 0,0 0,0.109375 0.125,0.109375 0.109375,0 0.125,-0.03125 0.171875,-0.21875 z m 0,0"
   id="path42" />
    </g>
  </g>
  <g
   fill="#000000"
   fill-opacity="1"
   id="g169"
   transform="matrix(0.352778,0,0,0.352778,-0.802305,-0.706305)">
    <g
   id="g168"
   transform="translate(8.6820002,11.81)">
      <path
   d="m 2.25,-1.625 c 0.125,-0.125 0.453125,-0.390625 0.59375,-0.5 0.484375,-0.453125 0.953125,-0.890625 0.953125,-1.609375 0,-0.953125 -0.796875,-1.5625 -1.78125,-1.5625 -0.96875,0 -1.59375,0.71875 -1.59375,1.4375 0,0.390625 0.3125,0.4375 0.421875,0.4375 0.171875,0 0.421875,-0.109375 0.421875,-0.421875 0,-0.40625 -0.40625,-0.40625 -0.5,-0.40625 C 1,-4.84375 1.53125,-5.03125 1.921875,-5.03125 c 0.734375,0 1.125,0.625 1.125,1.296875 0,0.828125 -0.578125,1.4375 -1.53125,2.390625 l -1,1.046875 C 0.421875,-0.21875 0.421875,-0.203125 0.421875,0 H 3.5625 l 0.234375,-1.421875 h -0.25 C 3.53125,-1.265625 3.46875,-0.875 3.375,-0.71875 c -0.046875,0.0625 -0.65625,0.0625 -0.78125,0.0625 H 1.171875 Z m 0,0"
   id="path167" />
    </g>
  </g>
  <g
   fill="#000000"
   fill-opacity="1"
   id="g171"
   transform="matrix(0.352778,0,0,0.352778,-0.802305,-0.706305)">
    <g
   id="g170"
   transform="translate(13.414,10.174)">
      <path
   d="m 3.609375,2.625 c 0,-0.046875 0,-0.0625 -0.1875,-0.25 C 2.0625,1 1.71875,-1.0625 1.71875,-2.71875 c 0,-1.90625 0.40625,-3.796875 1.75,-5.171875 0.140625,-0.125 0.140625,-0.140625 0.140625,-0.1875 0,-0.0625 -0.046875,-0.09375 -0.109375,-0.09375 -0.109375,0 -1.09375,0.734375 -1.734375,2.125 -0.5625,1.1875 -0.6875,2.40625 -0.6875,3.328125 0,0.84375 0.125,2.15625 0.71875,3.390625 C 2.453125,2.015625 3.390625,2.71875 3.5,2.71875 3.5625,2.71875 3.609375,2.6875 3.609375,2.625 Z m 0,0"
   id="path169" />
    </g>
  </g>
  <g
   fill="#000000"
   fill-opacity="1"
   id="g173"
   transform="matrix(0.352778,0,0,0.352778,-0.802305,-0.706305)">
    <g
   id="g172"
   transform="translate(17.656549,10.174)">
      <path
   d="m 2.25,-4.359375 h 1.015625 c 0.21875,0 0.328125,0 0.328125,-0.21875 0,-0.125 -0.109375,-0.125 -0.296875,-0.125 H 2.328125 C 2.71875,-6.25 2.78125,-6.46875 2.78125,-6.53125 c 0,-0.1875 -0.125,-0.296875 -0.3125,-0.296875 -0.03125,0 -0.34375,0.015625 -0.4375,0.390625 l -0.421875,1.734375 h -1.03125 c -0.21875,0 -0.328125,0 -0.328125,0.203125 0,0.140625 0.09375,0.140625 0.3125,0.140625 h 0.953125 c -0.78125,3.09375 -0.828125,3.28125 -0.828125,3.46875 0,0.59375 0.40625,1.015625 1,1.015625 1.109375,0 1.734375,-1.59375 1.734375,-1.6875 0,-0.109375 -0.078125,-0.109375 -0.125,-0.109375 -0.09375,0 -0.109375,0.03125 -0.171875,0.15625 C 2.65625,-0.375 2.078125,-0.125 1.71875,-0.125 c -0.234375,0 -0.34375,-0.140625 -0.34375,-0.5 0,-0.265625 0.015625,-0.328125 0.0625,-0.515625 z m 0,0"
   id="path171" />
    </g>
  </g>
  <g
   fill="#000000"
   fill-opacity="1"
   id="g175"
   transform="matrix(0.352778,0,0,0.352778,-0.802305,-0.706305)">
    <g
   id="g174"
   transform="translate(21.595825,10.174)">
      <path
   d="m 3.15625,-2.71875 c 0,-0.859375 -0.125,-2.171875 -0.71875,-3.40625 -0.65625,-1.34375 -1.59375,-2.046875 -1.703125,-2.046875 -0.0625,0 -0.109375,0.03125 -0.109375,0.09375 0,0.046875 0,0.0625 0.203125,0.265625 1.0625,1.078125 1.6875,2.8125 1.6875,5.09375 0,1.859375 -0.40625,3.78125 -1.75,5.15625 C 0.625,2.5625 0.625,2.578125 0.625,2.625 c 0,0.0625 0.046875,0.09375 0.109375,0.09375 0.109375,0 1.09375,-0.734375 1.734375,-2.125 0.546875,-1.1875 0.6875,-2.40625 0.6875,-3.3125 z m 0,0"
   id="path173" />
    </g>
  </g>
  <g
   fill="#000000"
   fill-opacity="1"
   id="g180"
   transform="matrix(0.352778,0,0,0.352778,-0.802305,-0.706305)">
    <g
   id="g176"
   transform="translate(1.993,21.375)">
      <path
   d="m 1.75,-4.296875 v -1.15625 c 0,-0.875 0.46875,-1.359375 0.90625,-1.359375 0.03125,0 0.1875,0 0.328125,0.078125 C 2.875,-6.703125 2.6875,-6.5625 2.6875,-6.3125 c 0,0.21875 0.15625,0.421875 0.4375,0.421875 0.28125,0 0.4375,-0.203125 0.4375,-0.4375 0,-0.375 -0.375,-0.703125 -0.90625,-0.703125 -0.6875,0 -1.546875,0.53125 -1.546875,1.59375 v 1.140625 h -0.78125 v 0.3125 h 0.78125 V -0.75 C 1.109375,-0.3125 1,-0.3125 0.34375,-0.3125 V 0 c 0.390625,-0.015625 0.859375,-0.03125 1.125,-0.03125 0.40625,0 0.875,0 1.265625,0.03125 V -0.3125 H 2.53125 c -0.734375,0 -0.75,-0.109375 -0.75,-0.46875 v -3.203125 h 1.125 v -0.3125 z m 0,0"
   id="path175" />
    </g>
    <g
   id="g177"
   transform="translate(5.037571,21.375)">
      <path
   d="m 3.3125,-0.75 c 0.046875,0.390625 0.3125,0.8125 0.78125,0.8125 0.21875,0 0.828125,-0.140625 0.828125,-0.953125 v -0.5625 h -0.25 v 0.5625 c 0,0.578125 -0.25,0.640625 -0.359375,0.640625 -0.328125,0 -0.375,-0.453125 -0.375,-0.5 v -1.984375 c 0,-0.421875 0,-0.8125 -0.359375,-1.1875 C 3.1875,-4.3125 2.6875,-4.46875 2.21875,-4.46875 c -0.828125,0 -1.515625,0.46875 -1.515625,1.125 0,0.296875 0.203125,0.46875 0.46875,0.46875 0.28125,0 0.453125,-0.203125 0.453125,-0.453125 0,-0.125 -0.046875,-0.453125 -0.515625,-0.453125 C 1.390625,-4.140625 1.875,-4.25 2.1875,-4.25 c 0.5,0 1.0625,0.390625 1.0625,1.28125 v 0.359375 c -0.515625,0.03125 -1.203125,0.0625 -1.828125,0.359375 -0.75,0.34375 -1,0.859375 -1,1.296875 0,0.8125 0.96875,1.0625 1.59375,1.0625 0.65625,0 1.109375,-0.40625 1.296875,-0.859375 z M 3.25,-2.390625 v 1 c 0,0.9375 -0.71875,1.28125 -1.171875,1.28125 -0.484375,0 -0.890625,-0.34375 -0.890625,-0.84375 0,-0.546875 0.421875,-1.375 2.0625,-1.4375 z m 0,0"
   id="path176" />
    </g>
    <g
   id="g178"
   transform="translate(10.018871,21.375)">
      <path
   d="m 2.078125,-1.9375 c 0.21875,0.046875 1.03125,0.203125 1.03125,0.921875 0,0.5 -0.34375,0.90625 -1.125,0.90625 -0.84375,0 -1.203125,-0.5625 -1.390625,-1.421875 C 0.5625,-1.65625 0.5625,-1.6875 0.453125,-1.6875 c -0.125,0 -0.125,0.0625 -0.125,0.234375 V -0.125 c 0,0.171875 0,0.234375 0.109375,0.234375 0.046875,0 0.0625,-0.015625 0.25,-0.203125 0.015625,-0.015625 0.015625,-0.03125 0.203125,-0.21875 0.4375,0.40625 0.890625,0.421875 1.09375,0.421875 1.140625,0 1.609375,-0.671875 1.609375,-1.390625 0,-0.515625 -0.296875,-0.828125 -0.421875,-0.9375 C 2.84375,-2.546875 2.453125,-2.625 2.03125,-2.703125 1.46875,-2.8125 0.8125,-2.9375 0.8125,-3.515625 c 0,-0.359375 0.25,-0.765625 1.109375,-0.765625 1.09375,0 1.15625,0.90625 1.171875,1.203125 0,0.09375 0.09375,0.09375 0.109375,0.09375 0.140625,0 0.140625,-0.046875 0.140625,-0.234375 v -1.015625 c 0,-0.15625 0,-0.234375 -0.109375,-0.234375 -0.046875,0 -0.078125,0 -0.203125,0.125 -0.03125,0.03125 -0.125,0.125 -0.171875,0.15625 -0.375,-0.28125 -0.78125,-0.28125 -0.9375,-0.28125 -1.21875,0 -1.59375,0.671875 -1.59375,1.234375 0,0.34375 0.15625,0.625 0.421875,0.84375 0.328125,0.25 0.609375,0.3125 1.328125,0.453125 z m 0,0"
   id="path177" />
    </g>
    <g
   id="g179"
   transform="translate(13.94812,21.375)">
      <path
   d="m 1.71875,-3.984375 h 1.4375 v -0.3125 H 1.71875 V -6.125 h -0.25 c 0,0.8125 -0.296875,1.875 -1.28125,1.921875 v 0.21875 h 0.84375 v 2.75 c 0,1.21875 0.9375,1.34375 1.296875,1.34375 0.703125,0 0.984375,-0.703125 0.984375,-1.34375 v -0.5625 h -0.25 V -1.25 c 0,0.734375 -0.296875,1.109375 -0.671875,1.109375 -0.671875,0 -0.671875,-0.90625 -0.671875,-1.078125 z m 0,0"
   id="path178" />
    </g>
  </g>
  <g
   fill="#000000"
   fill-opacity="1"
   id="g33"
   transform="matrix(0.352778,0,0,0.352778,-0.802305,-0.706305)">
    <g
   id="g181"
   transform="translate(21.140121,21.375)">
      <path
   d="M 1.671875,-3.3125 V -4.40625 L 0.28125,-4.296875 v 0.3125 c 0.703125,0 0.78125,0.0625 0.78125,0.5625 V -0.75 c 0,0.4375 -0.109375,0.4375 -0.78125,0.4375 V 0 c 0.390625,-0.015625 0.859375,-0.03125 1.140625,-0.03125 0.390625,0 0.859375,0 1.265625,0.03125 V -0.3125 H 2.46875 c -0.734375,0 -0.75,-0.109375 -0.75,-0.46875 V -2.3125 c 0,-0.984375 0.421875,-1.875 1.171875,-1.875 0.0625,0 0.09375,0 0.109375,0.015625 -0.03125,0 -0.234375,0.125 -0.234375,0.390625 0,0.265625 0.21875,0.421875 0.4375,0.421875 0.171875,0 0.421875,-0.125 0.421875,-0.4375 0,-0.3125 -0.3125,-0.609375 -0.734375,-0.609375 -0.734375,0 -1.09375,0.671875 -1.21875,1.09375 z m 0,0"
   id="path180" />
    </g>
    <g
   id="g182"
   transform="translate(25.042471,21.375)">
      <path
   d="M 1.109375,-2.515625 C 1.171875,-4 2.015625,-4.25 2.359375,-4.25 c 1.015625,0 1.125,1.34375 1.125,1.734375 z m 0,0.21875 h 2.78125 c 0.21875,0 0.25,0 0.25,-0.21875 0,-0.984375 -0.546875,-1.953125 -1.78125,-1.953125 -1.15625,0 -2.078125,1.03125 -2.078125,2.28125 0,1.328125 1.046875,2.296875 2.1875,2.296875 C 3.6875,0.109375 4.140625,-1 4.140625,-1.1875 4.140625,-1.28125 4.0625,-1.3125 4,-1.3125 c -0.078125,0 -0.109375,0.0625 -0.125,0.140625 -0.34375,1.03125 -1.25,1.03125 -1.34375,1.03125 -0.5,0 -0.890625,-0.296875 -1.125,-0.671875 -0.296875,-0.46875 -0.296875,-1.125 -0.296875,-1.484375 z m 0,0"
   id="path181" />
    </g>
    <g
   id="g183"
   transform="translate(29.469851,21.375)">
      <path
   d="m 3.3125,-0.75 c 0.046875,0.390625 0.3125,0.8125 0.78125,0.8125 0.21875,0 0.828125,-0.140625 0.828125,-0.953125 v -0.5625 h -0.25 v 0.5625 c 0,0.578125 -0.25,0.640625 -0.359375,0.640625 -0.328125,0 -0.375,-0.453125 -0.375,-0.5 v -1.984375 c 0,-0.421875 0,-0.8125 -0.359375,-1.1875 C 3.1875,-4.3125 2.6875,-4.46875 2.21875,-4.46875 c -0.828125,0 -1.515625,0.46875 -1.515625,1.125 0,0.296875 0.203125,0.46875 0.46875,0.46875 0.28125,0 0.453125,-0.203125 0.453125,-0.453125 0,-0.125 -0.046875,-0.453125 -0.515625,-0.453125 C 1.390625,-4.140625 1.875,-4.25 2.1875,-4.25 c 0.5,0 1.0625,0.390625 1.0625,1.28125 v 0.359375 c -0.515625,0.03125 -1.203125,0.0625 -1.828125,0.359375 -0.75,0.34375 -1,0.859375 -1,1.296875 0,0.8125 0.96875,1.0625 1.59375,1.0625 0.65625,0 1.109375,-0.40625 1.296875,-0.859375 z M 3.25,-2.390625 v 1 c 0,0.9375 -0.71875,1.28125 -1.171875,1.28125 -0.484375,0 -0.890625,-0.34375 -0.890625,-0.84375 0,-0.546875 0.421875,-1.375 2.0625,-1.4375 z m 0,0"
   id="path182" />
    </g>
    <g
   id="g184"
   transform="translate(34.451153,21.375)">
      <path
   d="m 1.171875,-2.171875 c 0,-1.625 0.8125,-2.046875 1.34375,-2.046875 0.09375,0 0.71875,0.015625 1.0625,0.375 -0.40625,0.03125 -0.46875,0.328125 -0.46875,0.453125 0,0.265625 0.1875,0.453125 0.453125,0.453125 0.265625,0 0.46875,-0.15625 0.46875,-0.46875 0,-0.671875 -0.765625,-1.0625 -1.53125,-1.0625 -1.25,0 -2.15625,1.078125 -2.15625,2.3125 0,1.28125 0.984375,2.265625 2.140625,2.265625 1.328125,0 1.65625,-1.203125 1.65625,-1.296875 0,-0.09375 -0.109375,-0.09375 -0.140625,-0.09375 -0.078125,0 -0.109375,0.03125 -0.125,0.09375 -0.28125,0.921875 -0.9375,1.046875 -1.296875,1.046875 -0.53125,0 -1.40625,-0.421875 -1.40625,-2.03125 z m 0,0"
   id="path183" />
    </g>
    <g
   id="g185"
   transform="translate(38.878529,21.375)">
      <path
   d="m 1.71875,-3.984375 h 1.4375 v -0.3125 H 1.71875 V -6.125 h -0.25 c 0,0.8125 -0.296875,1.875 -1.28125,1.921875 v 0.21875 h 0.84375 v 2.75 c 0,1.21875 0.9375,1.34375 1.296875,1.34375 0.703125,0 0.984375,-0.703125 0.984375,-1.34375 v -0.5625 h -0.25 V -1.25 c 0,0.734375 -0.296875,1.109375 -0.671875,1.109375 -0.671875,0 -0.671875,-0.90625 -0.671875,-1.078125 z m 0,0"
   id="path184" />
    </g>
    <g
   id="g186"
   transform="translate(42.752983,21.375)">
      <path
   d="M 1.765625,-4.40625 0.375,-4.296875 v 0.3125 c 0.640625,0 0.734375,0.0625 0.734375,0.546875 V -0.75 c 0,0.4375 -0.109375,0.4375 -0.78125,0.4375 V 0 C 0.640625,-0.015625 1.1875,-0.03125 1.421875,-0.03125 1.78125,-0.03125 2.125,-0.015625 2.46875,0 v -0.3125 c -0.671875,0 -0.703125,-0.046875 -0.703125,-0.4375 z m 0.03125,-1.734375 c 0,-0.3125 -0.234375,-0.53125 -0.515625,-0.53125 -0.3125,0 -0.53125,0.265625 -0.53125,0.53125 0,0.265625 0.21875,0.53125 0.53125,0.53125 0.28125,0 0.515625,-0.21875 0.515625,-0.53125 z m 0,0"
   id="path185" />
    </g>
    <g
   id="g187"
   transform="translate(45.520596,21.375)">
      <path
   d="M 1.09375,-3.421875 V -0.75 c 0,0.4375 -0.109375,0.4375 -0.78125,0.4375 V 0 c 0.359375,-0.015625 0.859375,-0.03125 1.140625,-0.03125 0.25,0 0.765625,0.015625 1.109375,0.03125 v -0.3125 c -0.671875,0 -0.78125,0 -0.78125,-0.4375 V -2.59375 C 1.78125,-3.625 2.5,-4.1875 3.125,-4.1875 c 0.640625,0 0.75,0.53125 0.75,1.109375 V -0.75 c 0,0.4375 -0.109375,0.4375 -0.78125,0.4375 V 0 c 0.34375,-0.015625 0.859375,-0.03125 1.125,-0.03125 0.25,0 0.78125,0.015625 1.109375,0.03125 v -0.3125 c -0.515625,0 -0.765625,0 -0.765625,-0.296875 v -1.90625 c 0,-0.859375 0,-1.15625 -0.3125,-1.515625 -0.140625,-0.171875 -0.46875,-0.375 -1.046875,-0.375 C 2.46875,-4.40625 2,-3.984375 1.71875,-3.359375 V -4.40625 L 0.3125,-4.296875 v 0.3125 c 0.703125,0 0.78125,0.0625 0.78125,0.5625 z m 0,0"
   id="path186" />
    </g>
    <g
   id="g188"
   transform="translate(51.055817,21.375)">
      <path
   d="m 2.21875,-1.71875 c -0.875,0 -0.875,-1 -0.875,-1.21875 0,-0.265625 0.015625,-0.59375 0.15625,-0.84375 0.078125,-0.109375 0.3125,-0.390625 0.71875,-0.390625 0.859375,0 0.859375,0.984375 0.859375,1.21875 0,0.265625 0,0.59375 -0.15625,0.84375 C 2.84375,-2 2.609375,-1.71875 2.21875,-1.71875 Z M 1.0625,-1.328125 c 0,-0.03125 0,-0.265625 0.15625,-0.46875 0.390625,0.28125 0.8125,0.3125 1,0.3125 0.921875,0 1.609375,-0.6875 1.609375,-1.453125 0,-0.375 -0.15625,-0.734375 -0.40625,-0.96875 C 3.78125,-4.25 4.140625,-4.296875 4.3125,-4.296875 c 0.03125,0 0.078125,0 0.109375,0.015625 C 4.3125,-4.25 4.25,-4.140625 4.25,-4.015625 c 0,0.171875 0.140625,0.28125 0.296875,0.28125 0.09375,0 0.28125,-0.0625 0.28125,-0.296875 0,-0.171875 -0.109375,-0.484375 -0.5,-0.484375 -0.203125,0 -0.640625,0.0625 -1.0625,0.46875 C 2.84375,-4.375 2.4375,-4.40625 2.21875,-4.40625 c -0.9375,0 -1.625,0.6875 -1.625,1.453125 0,0.4375 0.21875,0.8125 0.46875,1.03125 -0.125,0.140625 -0.3125,0.46875 -0.3125,0.828125 0,0.3125 0.140625,0.6875 0.453125,0.890625 -0.609375,0.15625 -0.921875,0.59375 -0.921875,0.984375 0,0.71875 0.984375,1.265625 2.203125,1.265625 1.171875,0 2.203125,-0.5 2.203125,-1.28125 0,-0.34375 -0.125,-0.859375 -0.640625,-1.140625 -0.53125,-0.265625 -1.109375,-0.265625 -1.71875,-0.265625 -0.25,0 -0.671875,0 -0.75,-0.015625 C 1.265625,-0.703125 1.0625,-1 1.0625,-1.328125 Z M 2.5,1.828125 c -1.015625,0 -1.703125,-0.515625 -1.703125,-1.046875 0,-0.453125 0.375,-0.828125 0.8125,-0.84375 h 0.59375 c 0.859375,0 1.96875,0 1.96875,0.84375 0,0.546875 -0.703125,1.046875 -1.671875,1.046875 z m 0,0"
   id="path187" />
    </g>
  </g>
  <g
   fill="#000000"
   fill-opacity="1"
   id="g39"
   transform="matrix(0.352778,0,0,0.352778,-0.802305,-0.706305)">
    <g
   id="g189"
   transform="translate(1.993,31.921)">
      <path
   d="M 1.671875,-3.3125 V -4.40625 L 0.28125,-4.296875 v 0.3125 c 0.703125,0 0.78125,0.0625 0.78125,0.5625 V -0.75 c 0,0.4375 -0.109375,0.4375 -0.78125,0.4375 V 0 c 0.390625,-0.015625 0.859375,-0.03125 1.140625,-0.03125 0.390625,0 0.859375,0 1.265625,0.03125 V -0.3125 H 2.46875 c -0.734375,0 -0.75,-0.109375 -0.75,-0.46875 V -2.3125 c 0,-0.984375 0.421875,-1.875 1.171875,-1.875 0.0625,0 0.09375,0 0.109375,0.015625 -0.03125,0 -0.234375,0.125 -0.234375,0.390625 0,0.265625 0.21875,0.421875 0.4375,0.421875 0.171875,0 0.421875,-0.125 0.421875,-0.4375 0,-0.3125 -0.3125,-0.609375 -0.734375,-0.609375 -0.734375,0 -1.09375,0.671875 -1.21875,1.09375 z m 0,0"
   id="path188" />
    </g>
    <g
   id="g190"
   transform="translate(5.89535,31.921)">
      <path
   d="M 1.109375,-2.515625 C 1.171875,-4 2.015625,-4.25 2.359375,-4.25 c 1.015625,0 1.125,1.34375 1.125,1.734375 z m 0,0.21875 h 2.78125 c 0.21875,0 0.25,0 0.25,-0.21875 0,-0.984375 -0.546875,-1.953125 -1.78125,-1.953125 -1.15625,0 -2.078125,1.03125 -2.078125,2.28125 0,1.328125 1.046875,2.296875 2.1875,2.296875 C 3.6875,0.109375 4.140625,-1 4.140625,-1.1875 4.140625,-1.28125 4.0625,-1.3125 4,-1.3125 c -0.078125,0 -0.109375,0.0625 -0.125,0.140625 -0.34375,1.03125 -1.25,1.03125 -1.34375,1.03125 -0.5,0 -0.890625,-0.296875 -1.125,-0.671875 -0.296875,-0.46875 -0.296875,-1.125 -0.296875,-1.484375 z m 0,0"
   id="path189" />
    </g>
    <g
   id="g191"
   transform="translate(10.32273,31.921)">
      <path
   d="m 2.078125,-1.9375 c 0.21875,0.046875 1.03125,0.203125 1.03125,0.921875 0,0.5 -0.34375,0.90625 -1.125,0.90625 -0.84375,0 -1.203125,-0.5625 -1.390625,-1.421875 C 0.5625,-1.65625 0.5625,-1.6875 0.453125,-1.6875 c -0.125,0 -0.125,0.0625 -0.125,0.234375 V -0.125 c 0,0.171875 0,0.234375 0.109375,0.234375 0.046875,0 0.0625,-0.015625 0.25,-0.203125 0.015625,-0.015625 0.015625,-0.03125 0.203125,-0.21875 0.4375,0.40625 0.890625,0.421875 1.09375,0.421875 1.140625,0 1.609375,-0.671875 1.609375,-1.390625 0,-0.515625 -0.296875,-0.828125 -0.421875,-0.9375 C 2.84375,-2.546875 2.453125,-2.625 2.03125,-2.703125 1.46875,-2.8125 0.8125,-2.9375 0.8125,-3.515625 c 0,-0.359375 0.25,-0.765625 1.109375,-0.765625 1.09375,0 1.15625,0.90625 1.171875,1.203125 0,0.09375 0.09375,0.09375 0.109375,0.09375 0.140625,0 0.140625,-0.046875 0.140625,-0.234375 v -1.015625 c 0,-0.15625 0,-0.234375 -0.109375,-0.234375 -0.046875,0 -0.078125,0 -0.203125,0.125 -0.03125,0.03125 -0.125,0.125 -0.171875,0.15625 -0.375,-0.28125 -0.78125,-0.28125 -0.9375,-0.28125 -1.21875,0 -1.59375,0.671875 -1.59375,1.234375 0,0.34375 0.15625,0.625 0.421875,0.84375 0.328125,0.25 0.609375,0.3125 1.328125,0.453125 z m 0,0"
   id="path190" />
    </g>
    <g
   id="g192"
   transform="translate(14.251979,31.921)">
      <path
   d="M 1.109375,-2.515625 C 1.171875,-4 2.015625,-4.25 2.359375,-4.25 c 1.015625,0 1.125,1.34375 1.125,1.734375 z m 0,0.21875 h 2.78125 c 0.21875,0 0.25,0 0.25,-0.21875 0,-0.984375 -0.546875,-1.953125 -1.78125,-1.953125 -1.15625,0 -2.078125,1.03125 -2.078125,2.28125 0,1.328125 1.046875,2.296875 2.1875,2.296875 C 3.6875,0.109375 4.140625,-1 4.140625,-1.1875 4.140625,-1.28125 4.0625,-1.3125 4,-1.3125 c -0.078125,0 -0.109375,0.0625 -0.125,0.140625 -0.34375,1.03125 -1.25,1.03125 -1.34375,1.03125 -0.5,0 -0.890625,-0.296875 -1.125,-0.671875 -0.296875,-0.46875 -0.296875,-1.125 -0.296875,-1.484375 z m 0,0"
   id="path191" />
    </g>
    <g
   id="g193"
   transform="translate(18.679359,31.921)">
      <path
   d="M 1.671875,-3.3125 V -4.40625 L 0.28125,-4.296875 v 0.3125 c 0.703125,0 0.78125,0.0625 0.78125,0.5625 V -0.75 c 0,0.4375 -0.109375,0.4375 -0.78125,0.4375 V 0 c 0.390625,-0.015625 0.859375,-0.03125 1.140625,-0.03125 0.390625,0 0.859375,0 1.265625,0.03125 V -0.3125 H 2.46875 c -0.734375,0 -0.75,-0.109375 -0.75,-0.46875 V -2.3125 c 0,-0.984375 0.421875,-1.875 1.171875,-1.875 0.0625,0 0.09375,0 0.109375,0.015625 -0.03125,0 -0.234375,0.125 -0.234375,0.390625 0,0.265625 0.21875,0.421875 0.4375,0.421875 0.171875,0 0.421875,-0.125 0.421875,-0.4375 0,-0.3125 -0.3125,-0.609375 -0.734375,-0.609375 -0.734375,0 -1.09375,0.671875 -1.21875,1.09375 z m 0,0"
   id="path192" />
    </g>
    <g
   id="g194"
   transform="translate(22.581709,31.921)">
      <path
   d="M 4.140625,-3.3125 C 4.234375,-3.546875 4.40625,-3.984375 5.0625,-3.984375 v -0.3125 c -0.234375,0.015625 -0.515625,0.03125 -0.75,0.03125 -0.234375,0 -0.6875,-0.015625 -0.859375,-0.03125 v 0.3125 c 0.359375,0 0.46875,0.234375 0.46875,0.421875 0,0.09375 -0.015625,0.140625 -0.046875,0.25 L 2.84375,-0.78125 1.734375,-3.5625 c -0.0625,-0.125 -0.0625,-0.140625 -0.0625,-0.171875 0,-0.25 0.390625,-0.25 0.578125,-0.25 v -0.3125 c -0.3125,0.015625 -0.859375,0.03125 -1.09375,0.03125 -0.265625,0 -0.671875,-0.015625 -0.96875,-0.03125 v 0.3125 c 0.625,0 0.671875,0.0625 0.796875,0.359375 l 1.4375,3.546875 C 2.484375,0.0625 2.5,0.109375 2.625,0.109375 c 0.140625,0 0.171875,-0.09375 0.21875,-0.1875 z m 0,0"
   id="path193" />
    </g>
  </g>
  <g
   fill="#000000"
   fill-opacity="1"
   id="g42"
   transform="matrix(0.352778,0,0,0.352778,-0.802305,-0.706305)">
    <g
   id="g195"
   transform="translate(27.561016,31.921)">
      <path
   d="M 4.6875,-2.140625 C 4.6875,-3.40625 3.703125,-4.46875 2.5,-4.46875 c -1.25,0 -2.21875,1.09375 -2.21875,2.328125 0,1.296875 1.03125,2.25 2.203125,2.25 1.203125,0 2.203125,-0.984375 2.203125,-2.25 z m -2.1875,2 c -0.4375,0 -0.875,-0.203125 -1.140625,-0.671875 -0.25,-0.4375 -0.25,-1.046875 -0.25,-1.40625 0,-0.390625 0,-0.921875 0.234375,-1.359375 C 1.609375,-4.03125 2.078125,-4.25 2.484375,-4.25 c 0.4375,0 0.859375,0.21875 1.125,0.65625 0.265625,0.421875 0.265625,1 0.265625,1.375 0,0.359375 0,0.90625 -0.21875,1.34375 C 3.421875,-0.421875 2.984375,-0.140625 2.5,-0.140625 Z m 0,0"
   id="path194" />
    </g>
    <g
   id="g196"
   transform="translate(32.542316,31.921)">
      <path
   d="M 1.765625,-4.40625 0.375,-4.296875 v 0.3125 c 0.640625,0 0.734375,0.0625 0.734375,0.546875 V -0.75 c 0,0.4375 -0.109375,0.4375 -0.78125,0.4375 V 0 C 0.640625,-0.015625 1.1875,-0.03125 1.421875,-0.03125 1.78125,-0.03125 2.125,-0.015625 2.46875,0 v -0.3125 c -0.671875,0 -0.703125,-0.046875 -0.703125,-0.4375 z m 0.03125,-1.734375 c 0,-0.3125 -0.234375,-0.53125 -0.515625,-0.53125 -0.3125,0 -0.53125,0.265625 -0.53125,0.53125 0,0.265625 0.21875,0.53125 0.53125,0.53125 0.28125,0 0.515625,-0.21875 0.515625,-0.53125 z m 0,0"
   id="path195" />
    </g>
    <g
   id="g197"
   transform="translate(35.309929,31.921)">
      <path
   d="M 1.671875,-3.3125 V -4.40625 L 0.28125,-4.296875 v 0.3125 c 0.703125,0 0.78125,0.0625 0.78125,0.5625 V -0.75 c 0,0.4375 -0.109375,0.4375 -0.78125,0.4375 V 0 c 0.390625,-0.015625 0.859375,-0.03125 1.140625,-0.03125 0.390625,0 0.859375,0 1.265625,0.03125 V -0.3125 H 2.46875 c -0.734375,0 -0.75,-0.109375 -0.75,-0.46875 V -2.3125 c 0,-0.984375 0.421875,-1.875 1.171875,-1.875 0.0625,0 0.09375,0 0.109375,0.015625 -0.03125,0 -0.234375,0.125 -0.234375,0.390625 0,0.265625 0.21875,0.421875 0.4375,0.421875 0.171875,0 0.421875,-0.125 0.421875,-0.4375 0,-0.3125 -0.3125,-0.609375 -0.734375,-0.609375 -0.734375,0 -1.09375,0.671875 -1.21875,1.09375 z m 0,0"
   id="path196" />
    </g>
  </g>
</g><g
       inkscape:label=""
       transform="translate(30.559342,55.893208)"
       id="g211"><g
   fill="#000000"
   fill-opacity="1"
   id="g12"
   transform="matrix(0.352778,0,0,0.352778,-0.818841,-0.706658)">
    <g
   id="use11"
   transform="translate(1.993,10.175)">
      <path
   d="m 7.03125,-7.578125 c 0,-0.03125 -0.015625,-0.109375 -0.109375,-0.109375 -0.0625,0 -0.078125,0.015625 -0.203125,0.15625 l -0.53125,0.625 C 5.90625,-7.421875 5.34375,-7.6875 4.640625,-7.6875 3.25,-7.6875 1.9375,-6.4375 1.9375,-5.109375 c 0,0.875 0.578125,1.375 1.140625,1.546875 L 4.25,-3.265625 c 0.390625,0.109375 1,0.265625 1,1.15625 0,0.984375 -0.890625,2.015625 -1.96875,2.015625 -0.703125,0 -1.90625,-0.25 -1.90625,-1.59375 0,-0.265625 0.046875,-0.53125 0.0625,-0.59375 0.015625,-0.046875 0.03125,-0.046875 0.03125,-0.078125 0,-0.109375 -0.078125,-0.109375 -0.140625,-0.109375 -0.046875,0 -0.078125,0 -0.109375,0.03125 C 1.171875,-2.390625 0.5625,0.09375 0.5625,0.125 c 0,0.078125 0.0625,0.109375 0.125,0.109375 0.046875,0 0.0625,0 0.203125,-0.15625 l 0.53125,-0.625 c 0.46875,0.640625 1.203125,0.78125 1.84375,0.78125 1.484375,0 2.765625,-1.4375 2.765625,-2.796875 0,-0.75 -0.375,-1.125 -0.53125,-1.28125 C 5.25,-4.09375 5.078125,-4.140625 4.109375,-4.390625 3.875,-4.453125 3.484375,-4.5625 3.375,-4.578125 3.09375,-4.671875 2.71875,-5 2.71875,-5.578125 c 0,-0.875 0.875,-1.8125 1.90625,-1.8125 0.90625,0 1.5625,0.46875 1.5625,1.703125 0,0.34375 -0.03125,0.546875 -0.03125,0.609375 0,0 0,0.109375 0.125,0.109375 0.109375,0 0.125,-0.03125 0.171875,-0.21875 z m 0,0"
   id="path27" />
    </g>
  </g>
  <g
   fill="#000000"
   fill-opacity="1"
   id="g13"
   transform="matrix(0.352778,0,0,0.352778,-0.818841,-0.706658)">
    <g
   id="use12"
   transform="translate(9.3151884,10.175)">
      <path
   d="m 3.609375,2.625 c 0,-0.046875 0,-0.0625 -0.1875,-0.25 C 2.0625,1 1.71875,-1.0625 1.71875,-2.71875 c 0,-1.90625 0.40625,-3.796875 1.75,-5.171875 0.140625,-0.125 0.140625,-0.140625 0.140625,-0.1875 0,-0.0625 -0.046875,-0.09375 -0.109375,-0.09375 -0.109375,0 -1.09375,0.734375 -1.734375,2.125 -0.5625,1.1875 -0.6875,2.40625 -0.6875,3.328125 0,0.84375 0.125,2.15625 0.71875,3.390625 C 2.453125,2.015625 3.390625,2.71875 3.5,2.71875 3.5625,2.71875 3.609375,2.6875 3.609375,2.625 Z m 0,0"
   id="path28" />
    </g>
  </g>
  <g
   fill="#000000"
   fill-opacity="1"
   id="g14"
   transform="matrix(0.352778,0,0,0.352778,-0.818841,-0.706658)">
    <g
   id="use13"
   transform="translate(13.557737,10.175)">
      <path
   d="m 2.25,-4.359375 h 1.015625 c 0.21875,0 0.328125,0 0.328125,-0.21875 0,-0.125 -0.109375,-0.125 -0.296875,-0.125 H 2.328125 C 2.71875,-6.25 2.78125,-6.46875 2.78125,-6.53125 c 0,-0.1875 -0.125,-0.296875 -0.3125,-0.296875 -0.03125,0 -0.34375,0.015625 -0.4375,0.390625 l -0.421875,1.734375 h -1.03125 c -0.21875,0 -0.328125,0 -0.328125,0.203125 0,0.140625 0.09375,0.140625 0.3125,0.140625 h 0.953125 c -0.78125,3.09375 -0.828125,3.28125 -0.828125,3.46875 0,0.59375 0.40625,1.015625 1,1.015625 1.109375,0 1.734375,-1.59375 1.734375,-1.6875 0,-0.109375 -0.078125,-0.109375 -0.125,-0.109375 -0.09375,0 -0.109375,0.03125 -0.171875,0.15625 C 2.65625,-0.375 2.078125,-0.125 1.71875,-0.125 c -0.234375,0 -0.34375,-0.140625 -0.34375,-0.5 0,-0.265625 0.015625,-0.328125 0.0625,-0.515625 z m 0,0"
   id="path29" />
    </g>
  </g>
  <g
   fill="#000000"
   fill-opacity="1"
   id="g15"
   transform="matrix(0.352778,0,0,0.352778,-0.818841,-0.706658)">
    <g
   id="use14"
   transform="translate(17.497013,10.175)">
      <path
   d="m 3.15625,-2.71875 c 0,-0.859375 -0.125,-2.171875 -0.71875,-3.40625 -0.65625,-1.34375 -1.59375,-2.046875 -1.703125,-2.046875 -0.0625,0 -0.109375,0.03125 -0.109375,0.09375 0,0.046875 0,0.0625 0.203125,0.265625 1.0625,1.078125 1.6875,2.8125 1.6875,5.09375 0,1.859375 -0.40625,3.78125 -1.75,5.15625 C 0.625,2.5625 0.625,2.578125 0.625,2.625 c 0,0.0625 0.046875,0.09375 0.109375,0.09375 0.109375,0 1.09375,-0.734375 1.734375,-2.125 0.546875,-1.1875 0.6875,-2.40625 0.6875,-3.3125 z m 0,0"
   id="path30" />
    </g>
  </g>
  <g
   fill="#000000"
   fill-opacity="1"
   id="g201"
   transform="matrix(0.352778,0,0,0.352778,-0.818841,-0.706658)">
    <g
   id="use15"
   transform="translate(1.993,21.375)">
      <path
   d="m 2.078125,-1.9375 c 0.21875,0.046875 1.03125,0.203125 1.03125,0.921875 0,0.5 -0.34375,0.90625 -1.125,0.90625 -0.84375,0 -1.203125,-0.5625 -1.390625,-1.421875 C 0.5625,-1.65625 0.5625,-1.6875 0.453125,-1.6875 c -0.125,0 -0.125,0.0625 -0.125,0.234375 V -0.125 c 0,0.171875 0,0.234375 0.109375,0.234375 0.046875,0 0.0625,-0.015625 0.25,-0.203125 0.015625,-0.015625 0.015625,-0.03125 0.203125,-0.21875 0.4375,0.40625 0.890625,0.421875 1.09375,0.421875 1.140625,0 1.609375,-0.671875 1.609375,-1.390625 0,-0.515625 -0.296875,-0.828125 -0.421875,-0.9375 C 2.84375,-2.546875 2.453125,-2.625 2.03125,-2.703125 1.46875,-2.8125 0.8125,-2.9375 0.8125,-3.515625 c 0,-0.359375 0.25,-0.765625 1.109375,-0.765625 1.09375,0 1.15625,0.90625 1.171875,1.203125 0,0.09375 0.09375,0.09375 0.109375,0.09375 0.140625,0 0.140625,-0.046875 0.140625,-0.234375 v -1.015625 c 0,-0.15625 0,-0.234375 -0.109375,-0.234375 -0.046875,0 -0.078125,0 -0.203125,0.125 -0.03125,0.03125 -0.125,0.125 -0.171875,0.15625 -0.375,-0.28125 -0.78125,-0.28125 -0.9375,-0.28125 -1.21875,0 -1.59375,0.671875 -1.59375,1.234375 0,0.34375 0.15625,0.625 0.421875,0.84375 0.328125,0.25 0.609375,0.3125 1.328125,0.453125 z m 0,0"
   id="path31" />
    </g>
    <g
   id="use16"
   transform="translate(5.9222488,21.375)">
      <path
   d="M 4.6875,-2.140625 C 4.6875,-3.40625 3.703125,-4.46875 2.5,-4.46875 c -1.25,0 -2.21875,1.09375 -2.21875,2.328125 0,1.296875 1.03125,2.25 2.203125,2.25 1.203125,0 2.203125,-0.984375 2.203125,-2.25 z m -2.1875,2 c -0.4375,0 -0.875,-0.203125 -1.140625,-0.671875 -0.25,-0.4375 -0.25,-1.046875 -0.25,-1.40625 0,-0.390625 0,-0.921875 0.234375,-1.359375 C 1.609375,-4.03125 2.078125,-4.25 2.484375,-4.25 c 0.4375,0 0.859375,0.21875 1.125,0.65625 0.265625,0.421875 0.265625,1 0.265625,1.375 0,0.359375 0,0.90625 -0.21875,1.34375 C 3.421875,-0.421875 2.984375,-0.140625 2.5,-0.140625 Z m 0,0"
   id="path32" />
    </g>
    <g
   id="g199"
   transform="translate(10.903549,21.375)">
      <path
   d="M 1.765625,-4.40625 0.375,-4.296875 v 0.3125 c 0.640625,0 0.734375,0.0625 0.734375,0.546875 V -0.75 c 0,0.4375 -0.109375,0.4375 -0.78125,0.4375 V 0 C 0.640625,-0.015625 1.1875,-0.03125 1.421875,-0.03125 1.78125,-0.03125 2.125,-0.015625 2.46875,0 v -0.3125 c -0.671875,0 -0.703125,-0.046875 -0.703125,-0.4375 z m 0.03125,-1.734375 c 0,-0.3125 -0.234375,-0.53125 -0.515625,-0.53125 -0.3125,0 -0.53125,0.265625 -0.53125,0.53125 0,0.265625 0.21875,0.53125 0.53125,0.53125 0.28125,0 0.515625,-0.21875 0.515625,-0.53125 z m 0,0"
   id="path33" />
    </g>
    <g
   id="g200"
   transform="translate(13.67116,21.375)">
      <path
   d="M 1.765625,-6.921875 0.328125,-6.8125 V -6.5 c 0.703125,0 0.78125,0.0625 0.78125,0.5625 V -0.75 c 0,0.4375 -0.109375,0.4375 -0.78125,0.4375 V 0 C 0.65625,-0.015625 1.1875,-0.03125 1.4375,-0.03125 c 0.25,0 0.734375,0.015625 1.109375,0.03125 v -0.3125 c -0.671875,0 -0.78125,0 -0.78125,-0.4375 z m 0,0"
   id="path34" />
    </g>
  </g>
  <g
   fill="#000000"
   fill-opacity="1"
   id="g24"
   transform="matrix(0.352778,0,0,0.352778,-0.818841,-0.706658)">
    <g
   id="g202"
   transform="translate(19.756315,21.375)">
      <path
   d="M 1.671875,-3.3125 V -4.40625 L 0.28125,-4.296875 v 0.3125 c 0.703125,0 0.78125,0.0625 0.78125,0.5625 V -0.75 c 0,0.4375 -0.109375,0.4375 -0.78125,0.4375 V 0 c 0.390625,-0.015625 0.859375,-0.03125 1.140625,-0.03125 0.390625,0 0.859375,0 1.265625,0.03125 V -0.3125 H 2.46875 c -0.734375,0 -0.75,-0.109375 -0.75,-0.46875 V -2.3125 c 0,-0.984375 0.421875,-1.875 1.171875,-1.875 0.0625,0 0.09375,0 0.109375,0.015625 -0.03125,0 -0.234375,0.125 -0.234375,0.390625 0,0.265625 0.21875,0.421875 0.4375,0.421875 0.171875,0 0.421875,-0.125 0.421875,-0.4375 0,-0.3125 -0.3125,-0.609375 -0.734375,-0.609375 -0.734375,0 -1.09375,0.671875 -1.21875,1.09375 z m 0,0"
   id="path35" />
    </g>
    <g
   id="g203"
   transform="translate(23.658667,21.375)">
      <path
   d="M 1.109375,-2.515625 C 1.171875,-4 2.015625,-4.25 2.359375,-4.25 c 1.015625,0 1.125,1.34375 1.125,1.734375 z m 0,0.21875 h 2.78125 c 0.21875,0 0.25,0 0.25,-0.21875 0,-0.984375 -0.546875,-1.953125 -1.78125,-1.953125 -1.15625,0 -2.078125,1.03125 -2.078125,2.28125 0,1.328125 1.046875,2.296875 2.1875,2.296875 C 3.6875,0.109375 4.140625,-1 4.140625,-1.1875 4.140625,-1.28125 4.0625,-1.3125 4,-1.3125 c -0.078125,0 -0.109375,0.0625 -0.125,0.140625 -0.34375,1.03125 -1.25,1.03125 -1.34375,1.03125 -0.5,0 -0.890625,-0.296875 -1.125,-0.671875 -0.296875,-0.46875 -0.296875,-1.125 -0.296875,-1.484375 z m 0,0"
   id="path36" />
    </g>
    <g
   id="g204"
   transform="translate(28.086046,21.375)">
      <path
   d="m 2.078125,-1.9375 c 0.21875,0.046875 1.03125,0.203125 1.03125,0.921875 0,0.5 -0.34375,0.90625 -1.125,0.90625 -0.84375,0 -1.203125,-0.5625 -1.390625,-1.421875 C 0.5625,-1.65625 0.5625,-1.6875 0.453125,-1.6875 c -0.125,0 -0.125,0.0625 -0.125,0.234375 V -0.125 c 0,0.171875 0,0.234375 0.109375,0.234375 0.046875,0 0.0625,-0.015625 0.25,-0.203125 0.015625,-0.015625 0.015625,-0.03125 0.203125,-0.21875 0.4375,0.40625 0.890625,0.421875 1.09375,0.421875 1.140625,0 1.609375,-0.671875 1.609375,-1.390625 0,-0.515625 -0.296875,-0.828125 -0.421875,-0.9375 C 2.84375,-2.546875 2.453125,-2.625 2.03125,-2.703125 1.46875,-2.8125 0.8125,-2.9375 0.8125,-3.515625 c 0,-0.359375 0.25,-0.765625 1.109375,-0.765625 1.09375,0 1.15625,0.90625 1.171875,1.203125 0,0.09375 0.09375,0.09375 0.109375,0.09375 0.140625,0 0.140625,-0.046875 0.140625,-0.234375 v -1.015625 c 0,-0.15625 0,-0.234375 -0.109375,-0.234375 -0.046875,0 -0.078125,0 -0.203125,0.125 -0.03125,0.03125 -0.125,0.125 -0.171875,0.15625 -0.375,-0.28125 -0.78125,-0.28125 -0.9375,-0.28125 -1.21875,0 -1.59375,0.671875 -1.59375,1.234375 0,0.34375 0.15625,0.625 0.421875,0.84375 0.328125,0.25 0.609375,0.3125 1.328125,0.453125 z m 0,0"
   id="path37" />
    </g>
    <g
   id="g205"
   transform="translate(32.015293,21.375)">
      <path
   d="M 1.109375,-2.515625 C 1.171875,-4 2.015625,-4.25 2.359375,-4.25 c 1.015625,0 1.125,1.34375 1.125,1.734375 z m 0,0.21875 h 2.78125 c 0.21875,0 0.25,0 0.25,-0.21875 0,-0.984375 -0.546875,-1.953125 -1.78125,-1.953125 -1.15625,0 -2.078125,1.03125 -2.078125,2.28125 0,1.328125 1.046875,2.296875 2.1875,2.296875 C 3.6875,0.109375 4.140625,-1 4.140625,-1.1875 4.140625,-1.28125 4.0625,-1.3125 4,-1.3125 c -0.078125,0 -0.109375,0.0625 -0.125,0.140625 -0.34375,1.03125 -1.25,1.03125 -1.34375,1.03125 -0.5,0 -0.890625,-0.296875 -1.125,-0.671875 -0.296875,-0.46875 -0.296875,-1.125 -0.296875,-1.484375 z m 0,0"
   id="path38" />
    </g>
    <g
   id="g206"
   transform="translate(36.442677,21.375)">
      <path
   d="M 1.671875,-3.3125 V -4.40625 L 0.28125,-4.296875 v 0.3125 c 0.703125,0 0.78125,0.0625 0.78125,0.5625 V -0.75 c 0,0.4375 -0.109375,0.4375 -0.78125,0.4375 V 0 c 0.390625,-0.015625 0.859375,-0.03125 1.140625,-0.03125 0.390625,0 0.859375,0 1.265625,0.03125 V -0.3125 H 2.46875 c -0.734375,0 -0.75,-0.109375 -0.75,-0.46875 V -2.3125 c 0,-0.984375 0.421875,-1.875 1.171875,-1.875 0.0625,0 0.09375,0 0.109375,0.015625 -0.03125,0 -0.234375,0.125 -0.234375,0.390625 0,0.265625 0.21875,0.421875 0.4375,0.421875 0.171875,0 0.421875,-0.125 0.421875,-0.4375 0,-0.3125 -0.3125,-0.609375 -0.734375,-0.609375 -0.734375,0 -1.09375,0.671875 -1.21875,1.09375 z m 0,0"
   id="path39" />
    </g>
    <g
   id="g207"
   transform="translate(40.345024,21.375)">
      <path
   d="M 4.140625,-3.3125 C 4.234375,-3.546875 4.40625,-3.984375 5.0625,-3.984375 v -0.3125 c -0.234375,0.015625 -0.515625,0.03125 -0.75,0.03125 -0.234375,0 -0.6875,-0.015625 -0.859375,-0.03125 v 0.3125 c 0.359375,0 0.46875,0.234375 0.46875,0.421875 0,0.09375 -0.015625,0.140625 -0.046875,0.25 L 2.84375,-0.78125 1.734375,-3.5625 c -0.0625,-0.125 -0.0625,-0.140625 -0.0625,-0.171875 0,-0.25 0.390625,-0.25 0.578125,-0.25 v -0.3125 c -0.3125,0.015625 -0.859375,0.03125 -1.09375,0.03125 -0.265625,0 -0.671875,-0.015625 -0.96875,-0.03125 v 0.3125 c 0.625,0 0.671875,0.0625 0.796875,0.359375 l 1.4375,3.546875 C 2.484375,0.0625 2.5,0.109375 2.625,0.109375 c 0.140625,0 0.171875,-0.09375 0.21875,-0.1875 z m 0,0"
   id="path40" />
    </g>
  </g>
  <g
   fill="#000000"
   fill-opacity="1"
   id="g27"
   transform="matrix(0.352778,0,0,0.352778,-0.818841,-0.706658)">
    <g
   id="g208"
   transform="translate(45.334293,21.375)">
      <path
   d="M 4.6875,-2.140625 C 4.6875,-3.40625 3.703125,-4.46875 2.5,-4.46875 c -1.25,0 -2.21875,1.09375 -2.21875,2.328125 0,1.296875 1.03125,2.25 2.203125,2.25 1.203125,0 2.203125,-0.984375 2.203125,-2.25 z m -2.1875,2 c -0.4375,0 -0.875,-0.203125 -1.140625,-0.671875 -0.25,-0.4375 -0.25,-1.046875 -0.25,-1.40625 0,-0.390625 0,-0.921875 0.234375,-1.359375 C 1.609375,-4.03125 2.078125,-4.25 2.484375,-4.25 c 0.4375,0 0.859375,0.21875 1.125,0.65625 0.265625,0.421875 0.265625,1 0.265625,1.375 0,0.359375 0,0.90625 -0.21875,1.34375 C 3.421875,-0.421875 2.984375,-0.140625 2.5,-0.140625 Z m 0,0"
   id="path41" />
    </g>
    <g
   id="g209"
   transform="translate(50.315594,21.375)">
      <path
   d="M 1.765625,-4.40625 0.375,-4.296875 v 0.3125 c 0.640625,0 0.734375,0.0625 0.734375,0.546875 V -0.75 c 0,0.4375 -0.109375,0.4375 -0.78125,0.4375 V 0 C 0.640625,-0.015625 1.1875,-0.03125 1.421875,-0.03125 1.78125,-0.03125 2.125,-0.015625 2.46875,0 v -0.3125 c -0.671875,0 -0.703125,-0.046875 -0.703125,-0.4375 z m 0.03125,-1.734375 c 0,-0.3125 -0.234375,-0.53125 -0.515625,-0.53125 -0.3125,0 -0.53125,0.265625 -0.53125,0.53125 0,0.265625 0.21875,0.53125 0.53125,0.53125 0.28125,0 0.515625,-0.21875 0.515625,-0.53125 z m 0,0"
   id="path208" />
    </g>
    <g
   id="g210"
   transform="translate(53.083206,21.375)">
      <path
   d="M 1.671875,-3.3125 V -4.40625 L 0.28125,-4.296875 v 0.3125 c 0.703125,0 0.78125,0.0625 0.78125,0.5625 V -0.75 c 0,0.4375 -0.109375,0.4375 -0.78125,0.4375 V 0 c 0.390625,-0.015625 0.859375,-0.03125 1.140625,-0.03125 0.390625,0 0.859375,0 1.265625,0.03125 V -0.3125 H 2.46875 c -0.734375,0 -0.75,-0.109375 -0.75,-0.46875 V -2.3125 c 0,-0.984375 0.421875,-1.875 1.171875,-1.875 0.0625,0 0.09375,0 0.109375,0.015625 -0.03125,0 -0.234375,0.125 -0.234375,0.390625 0,0.265625 0.21875,0.421875 0.4375,0.421875 0.171875,0 0.421875,-0.125 0.421875,-0.4375 0,-0.3125 -0.3125,-0.609375 -0.734375,-0.609375 -0.734375,0 -1.09375,0.671875 -1.21875,1.09375 z m 0,0"
   id="path209" />
    </g>
  </g>
</g><g
       inkscape:label=""
       transform="translate(96.993765,24.391665)"
       id="g5"><g
   fill="#000000"
   fill-opacity="1"
   id="g2"
   transform="matrix(0.352778,0,0,0.352778,-0.857426,-0.703395)">
    <g
   id="use1"
   transform="translate(1.993,9.4469995)">
      <path
   d="M 3.296875,-3.453125 H 5.15625 c 1.546875,0 3.0625,-1.125 3.0625,-2.34375 0,-0.84375 -0.71875,-1.65625 -2.140625,-1.65625 h -3.53125 c -0.21875,0 -0.328125,0 -0.328125,0.21875 0,0.125 0.09375,0.125 0.3125,0.125 0.140625,0 0.34375,0.015625 0.46875,0.015625 0.171875,0.03125 0.234375,0.0625 0.234375,0.171875 0,0.046875 0,0.078125 -0.03125,0.21875 l -1.46875,5.859375 c -0.109375,0.421875 -0.125,0.5 -1,0.5 -0.171875,0 -0.296875,0 -0.296875,0.21875 C 0.4375,0 0.5625,0 0.59375,0 c 0.3125,0 1.078125,-0.03125 1.390625,-0.03125 0.234375,0 0.46875,0.015625 0.703125,0.015625 C 2.921875,-0.015625 3.15625,0 3.390625,0 c 0.078125,0 0.21875,0 0.21875,-0.21875 0,-0.125 -0.09375,-0.125 -0.3125,-0.125 -0.390625,0 -0.703125,0 -0.703125,-0.1875 0,-0.0625 0.03125,-0.125 0.03125,-0.1875 z m 0.796875,-3.25 c 0.09375,-0.375 0.109375,-0.40625 0.578125,-0.40625 H 5.71875 c 0.90625,0 1.484375,0.296875 1.484375,1.046875 0,0.421875 -0.21875,1.359375 -0.640625,1.75 -0.546875,0.5 -1.203125,0.578125 -1.671875,0.578125 H 3.34375 Z m 0,0"
   id="path5" />
    </g>
  </g>
</g><g
       inkscape:label=""
       transform="translate(66.089106,118.98836)"
       id="g16"><g
   fill="#000000"
   fill-opacity="1"
   id="g11"
   transform="matrix(0.352778,0,0,0.352778,-0.890499,-0.620712)">
    <g
   id="g10"
   transform="translate(1.993,9.4469995)">
      <path
   d="m 4.78125,-0.0625 c 1.6875,-0.640625 3.296875,-2.59375 3.296875,-4.6875 0,-1.765625 -1.15625,-2.9375 -2.78125,-2.9375 -2.359375,0 -4.765625,2.46875 -4.765625,5.015625 0,1.8125 1.21875,2.90625 2.796875,2.90625 0.265625,0 0.640625,-0.03125 1.0625,-0.15625 -0.03125,0.671875 -0.03125,0.703125 -0.03125,0.84375 0,0.34375 0,1.1875 0.890625,1.1875 C 6.546875,2.109375 7.078125,0.125 7.078125,0 c 0,-0.078125 -0.078125,-0.109375 -0.125,-0.109375 -0.078125,0 -0.109375,0.0625 -0.125,0.125 C 6.5625,0.78125 5.9375,1.0625 5.546875,1.0625 c -0.5,0 -0.65625,-0.296875 -0.765625,-1.125 z M 2.71875,-0.15625 C 1.859375,-0.484375 1.5,-1.34375 1.5,-2.328125 c 0,-0.75 0.28125,-2.296875 1.109375,-3.46875 0.796875,-1.125 1.8125,-1.625 2.609375,-1.625 1.09375,0 1.890625,0.859375 1.890625,2.3125 0,1.09375 -0.5625,3.640625 -2.390625,4.671875 C 4.671875,-0.8125 4.5625,-1.609375 3.765625,-1.609375 3.1875,-1.609375 2.65625,-1.0625 2.65625,-0.5 c 0,0.21875 0.0625,0.34375 0.0625,0.34375 z m 0.671875,0.125 c -0.15625,0 -0.5,0 -0.5,-0.46875 0,-0.4375 0.40625,-0.875 0.875,-0.875 0.453125,0 0.65625,0.265625 0.65625,0.921875 0,0.171875 0,0.1875 -0.109375,0.21875 -0.28125,0.125 -0.609375,0.203125 -0.921875,0.203125 z m 0,0"
   id="path10" />
    </g>
  </g>
</g><g
       inkscape:label=""
       transform="translate(69.850008,29.964075)"
       id="g29"><g
   fill="#000000"
   fill-opacity="1"
   id="g4"
   transform="matrix(0.352778,0,0,0.352778,-0.857426,-0.703395)">
    <g
   id="use3"
   transform="translate(1.993,9.4469995)">
      <path
   d="M 3.296875,-3.453125 H 5.15625 c 1.546875,0 3.0625,-1.125 3.0625,-2.34375 0,-0.84375 -0.71875,-1.65625 -2.140625,-1.65625 h -3.53125 c -0.21875,0 -0.328125,0 -0.328125,0.21875 0,0.125 0.09375,0.125 0.3125,0.125 0.140625,0 0.34375,0.015625 0.46875,0.015625 0.171875,0.03125 0.234375,0.0625 0.234375,0.171875 0,0.046875 0,0.078125 -0.03125,0.21875 l -1.46875,5.859375 c -0.109375,0.421875 -0.125,0.5 -1,0.5 -0.171875,0 -0.296875,0 -0.296875,0.21875 C 0.4375,0 0.5625,0 0.59375,0 c 0.3125,0 1.078125,-0.03125 1.390625,-0.03125 0.234375,0 0.46875,0.015625 0.703125,0.015625 C 2.921875,-0.015625 3.15625,0 3.390625,0 c 0.078125,0 0.21875,0 0.21875,-0.21875 0,-0.125 -0.09375,-0.125 -0.3125,-0.125 -0.390625,0 -0.703125,0 -0.703125,-0.1875 0,-0.0625 0.03125,-0.125 0.03125,-0.1875 z m 0.796875,-3.25 c 0.09375,-0.375 0.109375,-0.40625 0.578125,-0.40625 H 5.71875 c 0.90625,0 1.484375,0.296875 1.484375,1.046875 0,0.421875 -0.21875,1.359375 -0.640625,1.75 -0.546875,0.5 -1.203125,0.578125 -1.671875,0.578125 H 3.34375 Z m 0,0"
   id="path17" />
    </g>
  </g>
  <g
   fill="#000000"
   fill-opacity="1"
   id="g28"
   transform="matrix(0.352778,0,0,0.352778,-0.857426,-0.703395)">
    <g
   id="use4"
   transform="translate(8.9960003,11.083)">
      <path
   d="m 1.546875,-4.90625 c 0,-0.234375 -0.171875,-0.453125 -0.4375,-0.453125 -0.234375,0 -0.4375,0.1875 -0.4375,0.4375 0,0.28125 0.234375,0.453125 0.4375,0.453125 0.28125,0 0.4375,-0.234375 0.4375,-0.4375 z m -1.1875,1.484375 v 0.265625 c 0.515625,0 0.578125,0.046875 0.578125,0.4375 V -0.625 c 0,0.359375 -0.09375,0.359375 -0.609375,0.359375 V 0 c 0.3125,-0.03125 0.765625,-0.03125 0.890625,-0.03125 0.09375,0 0.578125,0 0.859375,0.03125 v -0.265625 c -0.53125,0 -0.5625,-0.03125 -0.5625,-0.34375 v -2.90625 z m 0,0"
   id="path19" />
    </g>
    <g
   id="use5"
   transform="translate(11.347977,11.083)">
      <path
   d="m 3.875,-2.421875 c 0,-0.65625 -0.3125,-1.09375 -1.140625,-1.09375 -0.796875,0 -1.15625,0.578125 -1.25,0.765625 v -0.765625 l -1.15625,0.09375 v 0.265625 c 0.546875,0 0.609375,0.046875 0.609375,0.4375 V -0.625 c 0,0.359375 -0.09375,0.359375 -0.609375,0.359375 V 0 c 0.34375,-0.03125 0.6875,-0.03125 0.90625,-0.03125 0.234375,0 0.5625,0 0.90625,0.03125 v -0.265625 c -0.5,0 -0.609375,0 -0.609375,-0.359375 v -1.4375 c 0,-0.84375 0.640625,-1.234375 1.125,-1.234375 0.484375,0 0.609375,0.34375 0.609375,0.84375 V -0.625 c 0,0.359375 -0.09375,0.359375 -0.609375,0.359375 V 0 C 3,-0.03125 3.359375,-0.03125 3.5625,-0.03125 c 0.234375,0 0.578125,0 0.921875,0.03125 v -0.265625 c -0.515625,0 -0.609375,0 -0.609375,-0.359375 z m 0,0"
   id="path20" />
    </g>
  </g>
</g><g
       inkscape:label=""
       transform="translate(97.027628,51.39324)"
       id="g72"><g
   fill="#000000"
   fill-opacity="1"
   id="g70"
   transform="matrix(0.352778,0,0,0.352778,-0.857426,-0.703395)">
    <g
   id="g69"
   transform="translate(1.993,9.4469995)">
      <path
   d="M 3.296875,-3.453125 H 5.15625 c 1.546875,0 3.0625,-1.125 3.0625,-2.34375 0,-0.84375 -0.71875,-1.65625 -2.140625,-1.65625 h -3.53125 c -0.21875,0 -0.328125,0 -0.328125,0.21875 0,0.125 0.09375,0.125 0.3125,0.125 0.140625,0 0.34375,0.015625 0.46875,0.015625 0.171875,0.03125 0.234375,0.0625 0.234375,0.171875 0,0.046875 0,0.078125 -0.03125,0.21875 l -1.46875,5.859375 c -0.109375,0.421875 -0.125,0.5 -1,0.5 -0.171875,0 -0.296875,0 -0.296875,0.21875 C 0.4375,0 0.5625,0 0.59375,0 c 0.3125,0 1.078125,-0.03125 1.390625,-0.03125 0.234375,0 0.46875,0.015625 0.703125,0.015625 C 2.921875,-0.015625 3.15625,0 3.390625,0 c 0.078125,0 0.21875,0 0.21875,-0.21875 0,-0.125 -0.09375,-0.125 -0.3125,-0.125 -0.390625,0 -0.703125,0 -0.703125,-0.1875 0,-0.0625 0.03125,-0.125 0.03125,-0.1875 z m 0.796875,-3.25 c 0.09375,-0.375 0.109375,-0.40625 0.578125,-0.40625 H 5.71875 c 0.90625,0 1.484375,0.296875 1.484375,1.046875 0,0.421875 -0.21875,1.359375 -0.640625,1.75 -0.546875,0.5 -1.203125,0.578125 -1.671875,0.578125 H 3.34375 Z m 0,0"
   id="path69" />
    </g>
  </g>
  <g
   fill="#000000"
   fill-opacity="1"
   id="g7"
   transform="matrix(0.352778,0,0,0.352778,-0.857426,-0.703395)">
    <g
   id="g71"
   transform="translate(8.9960003,11.083)">
      <path
   d="m 3.296875,-1.8125 c 0.171875,0 0.21875,0 0.21875,-0.1875 C 3.515625,-2.703125 3.125,-3.546875 2,-3.546875 c -0.984375,0 -1.765625,0.8125 -1.765625,1.796875 0,1.03125 0.859375,1.828125 1.875,1.828125 1,0 1.40625,-0.84375 1.40625,-1.03125 0,-0.03125 -0.03125,-0.109375 -0.125,-0.109375 -0.09375,0 -0.109375,0.046875 -0.125,0.09375 -0.28125,0.78125 -0.96875,0.796875 -1.109375,0.796875 -0.359375,0 -0.734375,-0.15625 -0.96875,-0.53125 C 0.953125,-1.0625 0.953125,-1.578125 0.953125,-1.8125 Z M 0.953125,-2.03125 C 1.03125,-3.140625 1.703125,-3.328125 2,-3.328125 c 0.9375,0 0.96875,1.125 0.96875,1.296875 z m 0,0"
   id="path70" />
    </g>
    <g
   id="use6"
   transform="translate(12.759481,11.083)">
      <path
   d="m 2.453125,-1.859375 c 0.21875,-0.28125 0.453125,-0.5625 0.6875,-0.8125 0.265625,-0.28125 0.546875,-0.484375 1.046875,-0.5 V -3.4375 C 3.875,-3.40625 3.859375,-3.40625 3.5,-3.40625 c -0.03125,0 -0.5,0 -0.75,-0.03125 v 0.265625 c 0.15625,0.015625 0.1875,0.109375 0.1875,0.21875 0,0.09375 -0.046875,0.203125 -0.140625,0.3125 l -0.5,0.578125 -0.625,-0.75 C 1.5625,-2.921875 1.5625,-2.96875 1.5625,-2.984375 c 0,-0.0625 0.0625,-0.171875 0.25,-0.1875 V -3.4375 C 1.5,-3.40625 1.046875,-3.40625 0.96875,-3.40625 c -0.140625,0 -0.546875,0 -0.796875,-0.03125 v 0.265625 c 0.546875,0 0.546875,0.015625 0.96875,0.5 l 0.8125,0.984375 -0.71875,0.859375 c -0.203125,0.21875 -0.5,0.546875 -1.09375,0.5625 V 0 c 0.296875,-0.03125 0.34375,-0.03125 0.6875,-0.03125 0.015625,0 0.5,0 0.75,0.03125 v -0.265625 c -0.109375,-0.015625 -0.1875,-0.0625 -0.1875,-0.21875 0,-0.140625 0.09375,-0.25 0.109375,-0.28125 0.203125,-0.25 0.421875,-0.484375 0.625,-0.71875 l 0.65625,0.78125 c 0.15625,0.1875 0.15625,0.203125 0.15625,0.25 0,0.078125 -0.046875,0.1875 -0.25,0.1875 V 0 c 0.34375,-0.03125 0.703125,-0.03125 0.859375,-0.03125 0.140625,0 0.546875,0 0.78125,0.03125 v -0.265625 c -0.484375,0 -0.5625,-0.03125 -0.78125,-0.28125 z m 0,0"
   id="path71" />
    </g>
    <g
   id="use7"
   transform="translate(17.229113,11.083)">
      <path
   d="m 2.9375,-3.15625 c -0.234375,0.0625 -0.265625,0.25 -0.265625,0.34375 0,0.21875 0.15625,0.375 0.375,0.375 0.21875,0 0.375,-0.140625 0.375,-0.390625 0,-0.484375 -0.53125,-0.71875 -1.28125,-0.71875 -1.109375,0 -1.859375,0.875 -1.859375,1.828125 0,1.015625 0.828125,1.796875 1.828125,1.796875 1.125,0 1.40625,-0.9375 1.40625,-1.03125 0,-0.09375 -0.109375,-0.09375 -0.125,-0.09375 -0.0625,0 -0.09375,0 -0.125,0.078125 -0.046875,0.171875 -0.28125,0.796875 -1.078125,0.796875 -0.484375,0 -1.203125,-0.375 -1.203125,-1.5625 0,-1.140625 0.59375,-1.578125 1.171875,-1.578125 0.078125,0 0.5,0 0.78125,0.15625 z m 0,0"
   id="path72" />
    </g>
  </g>
</g><g
       inkscape:label=""
       transform="translate(30.691675,38.563034)"
       id="g76"><g
   fill="#000000"
   fill-opacity="1"
   id="g3"
   transform="matrix(0.352778,0,0,0.352778,-0.851914,-0.714419)">
    <g
   id="use2"
   transform="translate(1.993,9.4469995)">
      <path
   d="m 7.71875,-2.546875 c 0.03125,-0.046875 0.0625,-0.125 0.0625,-0.140625 0,-0.015625 0,-0.125 -0.140625,-0.125 -0.09375,0 -0.109375,0.0625 -0.140625,0.125 -0.703125,1.625 -1.109375,2.34375 -2.96875,2.34375 H 2.9375 c -0.15625,0 -0.171875,0 -0.25,0 C 2.578125,-0.359375 2.546875,-0.375 2.546875,-0.453125 c 0,-0.03125 0,-0.0625 0.0625,-0.25 L 3.34375,-3.6875 h 1.078125 c 0.9375,0 0.9375,0.234375 0.9375,0.5 0,0.078125 0,0.203125 -0.078125,0.53125 C 5.25,-2.59375 5.25,-2.5625 5.25,-2.53125 c 0,0.0625 0.046875,0.125 0.140625,0.125 0.078125,0 0.109375,-0.0625 0.15625,-0.21875 l 0.625,-2.5625 c 0,-0.0625 -0.046875,-0.109375 -0.125,-0.109375 -0.109375,0 -0.125,0.0625 -0.15625,0.1875 C 5.65625,-4.28125 5.46875,-4.03125 4.453125,-4.03125 H 3.4375 l 0.65625,-2.625 c 0.09375,-0.375 0.109375,-0.421875 0.578125,-0.421875 H 6.21875 c 1.328125,0 1.65625,0.3125 1.65625,1.203125 0,0.265625 0,0.296875 -0.046875,0.578125 0,0.078125 -0.015625,0.15625 -0.015625,0.203125 0,0.0625 0.046875,0.125 0.140625,0.125 0.125,0 0.125,-0.0625 0.15625,-0.265625 L 8.328125,-7.125 C 8.359375,-7.421875 8.296875,-7.421875 8.03125,-7.421875 H 2.515625 c -0.21875,0 -0.328125,0 -0.328125,0.21875 0,0.125 0.109375,0.125 0.3125,0.125 0.40625,0 0.703125,0 0.703125,0.203125 0,0.03125 0,0.0625 -0.046875,0.25 l -1.4375,5.78125 c -0.109375,0.421875 -0.140625,0.5 -1,0.5 -0.1875,0 -0.296875,0 -0.296875,0.21875 C 0.421875,0 0.515625,0 0.71875,0 H 6.375 c 0.25,0 0.265625,-0.015625 0.34375,-0.1875 z m 0,0"
   id="path73" />
    </g>
  </g>
  <g
   fill="#000000"
   fill-opacity="1"
   id="g75"
   transform="matrix(0.352778,0,0,0.352778,-0.851914,-0.714419)">
    <g
   id="g74"
   transform="translate(10.046,11.083)">
      <path
   d="m 3.34375,-2.375 c 0,-0.78125 -0.75,-1.171875 -1.484375,-1.171875 -0.65625,0 -1.25,0.25 -1.25,0.78125 0,0.234375 0.171875,0.375 0.375,0.375 0.234375,0 0.375,-0.15625 0.375,-0.375 0,-0.1875 -0.109375,-0.328125 -0.296875,-0.359375 0.296875,-0.203125 0.734375,-0.203125 0.78125,-0.203125 0.453125,0 0.890625,0.3125 0.890625,0.96875 V -2.125 C 2.28125,-2.09375 1.75,-2.078125 1.1875,-1.84375 c -0.703125,0.3125 -0.84375,0.765625 -0.84375,1.03125 0,0.6875 0.8125,0.890625 1.359375,0.890625 0.578125,0 0.9375,-0.328125 1.125,-0.640625 0.03125,0.296875 0.234375,0.609375 0.59375,0.609375 0.078125,0 0.75,-0.03125 0.75,-0.765625 v -0.4375 h -0.25 v 0.4375 c 0,0.328125 -0.109375,0.453125 -0.28125,0.453125 -0.296875,0 -0.296875,-0.359375 -0.296875,-0.453125 z m -0.609375,1.25 c 0,0.78125 -0.640625,0.984375 -0.96875,0.984375 C 1.359375,-0.140625 1,-0.421875 1,-0.8125 1,-1.328125 1.5,-1.875 2.734375,-1.90625 Z m 0,0"
   id="path74" />
    </g>
  </g>
</g><g
       inkscape:label=""
       transform="translate(27.047928,75.565757)"
       id="g81"><g
   fill="#000000"
   fill-opacity="1"
   id="g78"
   transform="matrix(0.352778,0,0,0.352778,-0.890499,-0.620712)">
    <g
   id="g77"
   transform="translate(1.993,9.4469995)">
      <path
   d="m 4.78125,-0.0625 c 1.6875,-0.640625 3.296875,-2.59375 3.296875,-4.6875 0,-1.765625 -1.15625,-2.9375 -2.78125,-2.9375 -2.359375,0 -4.765625,2.46875 -4.765625,5.015625 0,1.8125 1.21875,2.90625 2.796875,2.90625 0.265625,0 0.640625,-0.03125 1.0625,-0.15625 -0.03125,0.671875 -0.03125,0.703125 -0.03125,0.84375 0,0.34375 0,1.1875 0.890625,1.1875 C 6.546875,2.109375 7.078125,0.125 7.078125,0 c 0,-0.078125 -0.078125,-0.109375 -0.125,-0.109375 -0.078125,0 -0.109375,0.0625 -0.125,0.125 C 6.5625,0.78125 5.9375,1.0625 5.546875,1.0625 c -0.5,0 -0.65625,-0.296875 -0.765625,-1.125 z M 2.71875,-0.15625 C 1.859375,-0.484375 1.5,-1.34375 1.5,-2.328125 c 0,-0.75 0.28125,-2.296875 1.109375,-3.46875 0.796875,-1.125 1.8125,-1.625 2.609375,-1.625 1.09375,0 1.890625,0.859375 1.890625,2.3125 0,1.09375 -0.5625,3.640625 -2.390625,4.671875 C 4.671875,-0.8125 4.5625,-1.609375 3.765625,-1.609375 3.1875,-1.609375 2.65625,-1.0625 2.65625,-0.5 c 0,0.21875 0.0625,0.34375 0.0625,0.34375 z m 0.671875,0.125 c -0.15625,0 -0.5,0 -0.5,-0.46875 0,-0.4375 0.40625,-0.875 0.875,-0.875 0.453125,0 0.65625,0.265625 0.65625,0.921875 0,0.171875 0,0.1875 -0.109375,0.21875 -0.28125,0.125 -0.609375,0.203125 -0.921875,0.203125 z m 0,0"
   id="path76" />
    </g>
  </g>
  <g
   fill="#000000"
   fill-opacity="1"
   id="g80"
   transform="matrix(0.352778,0,0,0.352778,-0.890499,-0.620712)">
    <g
   id="g79"
   transform="translate(10.617,11.084)">
      <path
   d="m 2.09375,1.28125 c -0.515625,0 -0.609375,0 -0.609375,-0.359375 v -1.3125 c 0.375,0.40625 0.78125,0.46875 1.046875,0.46875 1,0 1.890625,-0.78125 1.890625,-1.796875 0,-1 -0.8125,-1.796875 -1.78125,-1.796875 -0.3125,0 -0.765625,0.078125 -1.171875,0.5 v -0.5 l -1.1875,0.09375 v 0.265625 c 0.5625,0 0.609375,0.046875 0.609375,0.375 v 3.703125 c 0,0.359375 -0.109375,0.359375 -0.609375,0.359375 v 0.265625 c 0.34375,-0.03125 0.6875,-0.03125 0.90625,-0.03125 0.234375,0 0.5625,0 0.90625,0.03125 z m -0.609375,-3.9375 c 0.1875,-0.3125 0.59375,-0.609375 1.09375,-0.609375 0.609375,0 1.125,0.671875 1.125,1.546875 0,0.90625 -0.578125,1.578125 -1.21875,1.578125 -0.28125,0 -0.640625,-0.125 -0.90625,-0.515625 -0.09375,-0.140625 -0.09375,-0.15625 -0.09375,-0.296875 z m 0,0"
   id="path78" />
    </g>
  </g>
</g><g
       inkscape:label=""
       transform="translate(39.952091,75.6047)"
       id="g86"><g
   fill="#000000"
   fill-opacity="1"
   id="g83"
   transform="matrix(0.352778,0,0,0.352778,-0.857426,-0.703395)">
    <g
   id="g82"
   transform="translate(1.993,9.4469995)">
      <path
   d="M 3.296875,-3.453125 H 5.15625 c 1.546875,0 3.0625,-1.125 3.0625,-2.34375 0,-0.84375 -0.71875,-1.65625 -2.140625,-1.65625 h -3.53125 c -0.21875,0 -0.328125,0 -0.328125,0.21875 0,0.125 0.09375,0.125 0.3125,0.125 0.140625,0 0.34375,0.015625 0.46875,0.015625 0.171875,0.03125 0.234375,0.0625 0.234375,0.171875 0,0.046875 0,0.078125 -0.03125,0.21875 l -1.46875,5.859375 c -0.109375,0.421875 -0.125,0.5 -1,0.5 -0.171875,0 -0.296875,0 -0.296875,0.21875 C 0.4375,0 0.5625,0 0.59375,0 c 0.3125,0 1.078125,-0.03125 1.390625,-0.03125 0.234375,0 0.46875,0.015625 0.703125,0.015625 C 2.921875,-0.015625 3.15625,0 3.390625,0 c 0.078125,0 0.21875,0 0.21875,-0.21875 0,-0.125 -0.09375,-0.125 -0.3125,-0.125 -0.390625,0 -0.703125,0 -0.703125,-0.1875 0,-0.0625 0.03125,-0.125 0.03125,-0.1875 z m 0.796875,-3.25 c 0.09375,-0.375 0.109375,-0.40625 0.578125,-0.40625 H 5.71875 c 0.90625,0 1.484375,0.296875 1.484375,1.046875 0,0.421875 -0.21875,1.359375 -0.640625,1.75 -0.546875,0.5 -1.203125,0.578125 -1.671875,0.578125 H 3.34375 Z m 0,0"
   id="path81" />
    </g>
  </g>
  <g
   fill="#000000"
   fill-opacity="1"
   id="g85"
   transform="matrix(0.352778,0,0,0.352778,-0.857426,-0.703395)">
    <g
   id="g84"
   transform="translate(8.9960003,11.083)">
      <path
   d="m 2.5,-5.078125 c 0,-0.21875 -0.015625,-0.21875 -0.234375,-0.21875 -0.328125,0.3125 -0.75,0.5 -1.5,0.5 v 0.265625 c 0.21875,0 0.640625,0 1.109375,-0.203125 v 4.078125 c 0,0.296875 -0.03125,0.390625 -0.78125,0.390625 H 0.8125 V 0 c 0.328125,-0.03125 1.015625,-0.03125 1.375,-0.03125 0.359375,0 1.046875,0 1.375,0.03125 V -0.265625 H 3.28125 c -0.75,0 -0.78125,-0.09375 -0.78125,-0.390625 z m 0,0"
   id="path83" />
    </g>
  </g>
</g><g
       inkscape:label=""
       transform="translate(97.002873,76.332304)"
       id="g91"><g
   fill="#000000"
   fill-opacity="1"
   id="g88"
   transform="matrix(0.352778,0,0,0.352778,-0.857426,-0.703395)">
    <g
   id="g87"
   transform="translate(1.993,9.4469995)">
      <path
   d="M 3.296875,-3.453125 H 5.15625 c 1.546875,0 3.0625,-1.125 3.0625,-2.34375 0,-0.84375 -0.71875,-1.65625 -2.140625,-1.65625 h -3.53125 c -0.21875,0 -0.328125,0 -0.328125,0.21875 0,0.125 0.09375,0.125 0.3125,0.125 0.140625,0 0.34375,0.015625 0.46875,0.015625 0.171875,0.03125 0.234375,0.0625 0.234375,0.171875 0,0.046875 0,0.078125 -0.03125,0.21875 l -1.46875,5.859375 c -0.109375,0.421875 -0.125,0.5 -1,0.5 -0.171875,0 -0.296875,0 -0.296875,0.21875 C 0.4375,0 0.5625,0 0.59375,0 c 0.3125,0 1.078125,-0.03125 1.390625,-0.03125 0.234375,0 0.46875,0.015625 0.703125,0.015625 C 2.921875,-0.015625 3.15625,0 3.390625,0 c 0.078125,0 0.21875,0 0.21875,-0.21875 0,-0.125 -0.09375,-0.125 -0.3125,-0.125 -0.390625,0 -0.703125,0 -0.703125,-0.1875 0,-0.0625 0.03125,-0.125 0.03125,-0.1875 z m 0.796875,-3.25 c 0.09375,-0.375 0.109375,-0.40625 0.578125,-0.40625 H 5.71875 c 0.90625,0 1.484375,0.296875 1.484375,1.046875 0,0.421875 -0.21875,1.359375 -0.640625,1.75 -0.546875,0.5 -1.203125,0.578125 -1.671875,0.578125 H 3.34375 Z m 0,0"
   id="path86" />
    </g>
  </g>
  <g
   fill="#000000"
   fill-opacity="1"
   id="g90"
   transform="matrix(0.352778,0,0,0.352778,-0.857426,-0.703395)">
    <g
   id="g89"
   transform="translate(8.9960003,11.083)">
      <path
   d="m 2.25,-1.625 c 0.125,-0.125 0.453125,-0.390625 0.59375,-0.5 0.484375,-0.453125 0.953125,-0.890625 0.953125,-1.609375 0,-0.953125 -0.796875,-1.5625 -1.78125,-1.5625 -0.96875,0 -1.59375,0.71875 -1.59375,1.4375 0,0.390625 0.3125,0.4375 0.421875,0.4375 0.171875,0 0.421875,-0.109375 0.421875,-0.421875 0,-0.40625 -0.40625,-0.40625 -0.5,-0.40625 C 1,-4.84375 1.53125,-5.03125 1.921875,-5.03125 c 0.734375,0 1.125,0.625 1.125,1.296875 0,0.828125 -0.578125,1.4375 -1.53125,2.390625 l -1,1.046875 C 0.421875,-0.21875 0.421875,-0.203125 0.421875,0 H 3.5625 l 0.234375,-1.421875 h -0.25 C 3.53125,-1.265625 3.46875,-0.875 3.375,-0.71875 c -0.046875,0.0625 -0.65625,0.0625 -0.78125,0.0625 H 1.171875 Z m 0,0"
   id="path88" />
    </g>
  </g>
</g><g
       inkscape:label=""
       transform="translate(69.993315,94.657494)"
       id="g96"><g
   fill="#000000"
   fill-opacity="1"
   id="g93"
   transform="matrix(0.352778,0,0,0.352778,-0.890499,-0.620712)">
    <g
   id="g92"
   transform="translate(1.993,9.4469995)">
      <path
   d="m 4.78125,-0.0625 c 1.6875,-0.640625 3.296875,-2.59375 3.296875,-4.6875 0,-1.765625 -1.15625,-2.9375 -2.78125,-2.9375 -2.359375,0 -4.765625,2.46875 -4.765625,5.015625 0,1.8125 1.21875,2.90625 2.796875,2.90625 0.265625,0 0.640625,-0.03125 1.0625,-0.15625 -0.03125,0.671875 -0.03125,0.703125 -0.03125,0.84375 0,0.34375 0,1.1875 0.890625,1.1875 C 6.546875,2.109375 7.078125,0.125 7.078125,0 c 0,-0.078125 -0.078125,-0.109375 -0.125,-0.109375 -0.078125,0 -0.109375,0.0625 -0.125,0.125 C 6.5625,0.78125 5.9375,1.0625 5.546875,1.0625 c -0.5,0 -0.65625,-0.296875 -0.765625,-1.125 z M 2.71875,-0.15625 C 1.859375,-0.484375 1.5,-1.34375 1.5,-2.328125 c 0,-0.75 0.28125,-2.296875 1.109375,-3.46875 0.796875,-1.125 1.8125,-1.625 2.609375,-1.625 1.09375,0 1.890625,0.859375 1.890625,2.3125 0,1.09375 -0.5625,3.640625 -2.390625,4.671875 C 4.671875,-0.8125 4.5625,-1.609375 3.765625,-1.609375 3.1875,-1.609375 2.65625,-1.0625 2.65625,-0.5 c 0,0.21875 0.0625,0.34375 0.0625,0.34375 z m 0.671875,0.125 c -0.15625,0 -0.5,0 -0.5,-0.46875 0,-0.4375 0.40625,-0.875 0.875,-0.875 0.453125,0 0.65625,0.265625 0.65625,0.921875 0,0.171875 0,0.1875 -0.109375,0.21875 -0.28125,0.125 -0.609375,0.203125 -0.921875,0.203125 z m 0,0"
   id="path91" />
    </g>
  </g>
  <g
   fill="#000000"
   fill-opacity="1"
   id="g95"
   transform="matrix(0.352778,0,0,0.352778,-0.890499,-0.620712)">
    <g
   id="g94"
   transform="translate(10.617,11.084)">
      <path
   d="m 2.25,-1.625 c 0.125,-0.125 0.453125,-0.390625 0.59375,-0.5 0.484375,-0.453125 0.953125,-0.890625 0.953125,-1.609375 0,-0.953125 -0.796875,-1.5625 -1.78125,-1.5625 -0.96875,0 -1.59375,0.71875 -1.59375,1.4375 0,0.390625 0.3125,0.4375 0.421875,0.4375 0.171875,0 0.421875,-0.109375 0.421875,-0.421875 0,-0.40625 -0.40625,-0.40625 -0.5,-0.40625 C 1,-4.84375 1.53125,-5.03125 1.921875,-5.03125 c 0.734375,0 1.125,0.625 1.125,1.296875 0,0.828125 -0.578125,1.4375 -1.53125,2.390625 l -1,1.046875 C 0.421875,-0.21875 0.421875,-0.203125 0.421875,0 H 3.5625 l 0.234375,-1.421875 h -0.25 C 3.53125,-1.265625 3.46875,-0.875 3.375,-0.71875 c -0.046875,0.0625 -0.65625,0.0625 -0.78125,0.0625 H 1.171875 Z m 0,0"
   id="path93" />
    </g>
  </g>
</g><g
       inkscape:label=""
       transform="translate(60.54282,94.732195)"
       id="g101"><g
   fill="#000000"
   fill-opacity="1"
   id="g98"
   transform="matrix(0.352778,0,0,0.352778,-0.890499,-0.620712)">
    <g
   id="g97"
   transform="translate(1.993,9.4469995)">
      <path
   d="m 4.78125,-0.0625 c 1.6875,-0.640625 3.296875,-2.59375 3.296875,-4.6875 0,-1.765625 -1.15625,-2.9375 -2.78125,-2.9375 -2.359375,0 -4.765625,2.46875 -4.765625,5.015625 0,1.8125 1.21875,2.90625 2.796875,2.90625 0.265625,0 0.640625,-0.03125 1.0625,-0.15625 -0.03125,0.671875 -0.03125,0.703125 -0.03125,0.84375 0,0.34375 0,1.1875 0.890625,1.1875 C 6.546875,2.109375 7.078125,0.125 7.078125,0 c 0,-0.078125 -0.078125,-0.109375 -0.125,-0.109375 -0.078125,0 -0.109375,0.0625 -0.125,0.125 C 6.5625,0.78125 5.9375,1.0625 5.546875,1.0625 c -0.5,0 -0.65625,-0.296875 -0.765625,-1.125 z M 2.71875,-0.15625 C 1.859375,-0.484375 1.5,-1.34375 1.5,-2.328125 c 0,-0.75 0.28125,-2.296875 1.109375,-3.46875 0.796875,-1.125 1.8125,-1.625 2.609375,-1.625 1.09375,0 1.890625,0.859375 1.890625,2.3125 0,1.09375 -0.5625,3.640625 -2.390625,4.671875 C 4.671875,-0.8125 4.5625,-1.609375 3.765625,-1.609375 3.1875,-1.609375 2.65625,-1.0625 2.65625,-0.5 c 0,0.21875 0.0625,0.34375 0.0625,0.34375 z m 0.671875,0.125 c -0.15625,0 -0.5,0 -0.5,-0.46875 0,-0.4375 0.40625,-0.875 0.875,-0.875 0.453125,0 0.65625,0.265625 0.65625,0.921875 0,0.171875 0,0.1875 -0.109375,0.21875 -0.28125,0.125 -0.609375,0.203125 -0.921875,0.203125 z m 0,0"
   id="path96" />
    </g>
  </g>
  <g
   fill="#000000"
   fill-opacity="1"
   id="g100"
   transform="matrix(0.352778,0,0,0.352778,-0.890499,-0.620712)">
    <g
   id="g99"
   transform="translate(10.617,11.084)">
      <path
   d="m 2.5,-5.078125 c 0,-0.21875 -0.015625,-0.21875 -0.234375,-0.21875 -0.328125,0.3125 -0.75,0.5 -1.5,0.5 v 0.265625 c 0.21875,0 0.640625,0 1.109375,-0.203125 v 4.078125 c 0,0.296875 -0.03125,0.390625 -0.78125,0.390625 H 0.8125 V 0 c 0.328125,-0.03125 1.015625,-0.03125 1.375,-0.03125 0.359375,0 1.046875,0 1.375,0.03125 V -0.265625 H 3.28125 c -0.75,0 -0.78125,-0.09375 -0.78125,-0.390625 z m 0,0"
   id="path98" />
    </g>
  </g>
</g></g></svg>
